%TF.GenerationSoftware,KiCad,Pcbnew,8.0.2*%
%TF.CreationDate,2025-03-31T12:16:52-07:00*%
%TF.ProjectId,ChipigniteExplain,43686970-6967-46e6-9974-654578706c61,1.1*%
%TF.SameCoordinates,Original*%
%TF.FileFunction,Soldermask,Top*%
%TF.FilePolarity,Negative*%
%FSLAX46Y46*%
G04 Gerber Fmt 4.6, Leading zero omitted, Abs format (unit mm)*
G04 Created by KiCad (PCBNEW 8.0.2) date 2025-03-31 12:16:52*
%MOMM*%
%LPD*%
G01*
G04 APERTURE LIST*
G04 Aperture macros list*
%AMRoundRect*
0 Rectangle with rounded corners*
0 $1 Rounding radius*
0 $2 $3 $4 $5 $6 $7 $8 $9 X,Y pos of 4 corners*
0 Add a 4 corners polygon primitive as box body*
4,1,4,$2,$3,$4,$5,$6,$7,$8,$9,$2,$3,0*
0 Add four circle primitives for the rounded corners*
1,1,$1+$1,$2,$3*
1,1,$1+$1,$4,$5*
1,1,$1+$1,$6,$7*
1,1,$1+$1,$8,$9*
0 Add four rect primitives between the rounded corners*
20,1,$1+$1,$2,$3,$4,$5,0*
20,1,$1+$1,$4,$5,$6,$7,0*
20,1,$1+$1,$6,$7,$8,$9,0*
20,1,$1+$1,$8,$9,$2,$3,0*%
G04 Aperture macros list end*
%ADD10RoundRect,0.135000X0.135000X0.185000X-0.135000X0.185000X-0.135000X-0.185000X0.135000X-0.185000X0*%
%ADD11RoundRect,0.375000X0.625000X0.375000X-0.625000X0.375000X-0.625000X-0.375000X0.625000X-0.375000X0*%
%ADD12RoundRect,0.500000X0.500000X1.400000X-0.500000X1.400000X-0.500000X-1.400000X0.500000X-1.400000X0*%
%ADD13RoundRect,0.135000X-0.185000X0.135000X-0.185000X-0.135000X0.185000X-0.135000X0.185000X0.135000X0*%
%ADD14RoundRect,0.140000X0.170000X-0.140000X0.170000X0.140000X-0.170000X0.140000X-0.170000X-0.140000X0*%
%ADD15RoundRect,0.135000X-0.135000X-0.185000X0.135000X-0.185000X0.135000X0.185000X-0.135000X0.185000X0*%
%ADD16RoundRect,0.135000X0.185000X-0.135000X0.185000X0.135000X-0.185000X0.135000X-0.185000X-0.135000X0*%
%ADD17RoundRect,0.102000X-0.700000X0.750000X-0.700000X-0.750000X0.700000X-0.750000X0.700000X0.750000X0*%
%ADD18RoundRect,0.250000X-0.250000X-0.475000X0.250000X-0.475000X0.250000X0.475000X-0.250000X0.475000X0*%
%ADD19RoundRect,0.150000X-0.150000X0.587500X-0.150000X-0.587500X0.150000X-0.587500X0.150000X0.587500X0*%
%ADD20C,6.400000*%
%ADD21RoundRect,0.225000X0.225000X0.250000X-0.225000X0.250000X-0.225000X-0.250000X0.225000X-0.250000X0*%
%ADD22RoundRect,0.140000X-0.140000X-0.170000X0.140000X-0.170000X0.140000X0.170000X-0.140000X0.170000X0*%
%ADD23RoundRect,0.102000X-0.750000X-0.700000X0.750000X-0.700000X0.750000X0.700000X-0.750000X0.700000X0*%
%ADD24RoundRect,0.225000X-0.225000X-0.250000X0.225000X-0.250000X0.225000X0.250000X-0.225000X0.250000X0*%
%ADD25RoundRect,0.150000X0.150000X-0.650000X0.150000X0.650000X-0.150000X0.650000X-0.150000X-0.650000X0*%
%ADD26RoundRect,0.150000X-0.200000X0.150000X-0.200000X-0.150000X0.200000X-0.150000X0.200000X0.150000X0*%
%ADD27RoundRect,0.140000X0.140000X0.170000X-0.140000X0.170000X-0.140000X-0.170000X0.140000X-0.170000X0*%
%ADD28RoundRect,0.102000X-0.275000X0.400000X-0.275000X-0.400000X0.275000X-0.400000X0.275000X0.400000X0*%
%ADD29R,1.200000X1.400000*%
%ADD30RoundRect,0.050000X-0.387500X-0.050000X0.387500X-0.050000X0.387500X0.050000X-0.387500X0.050000X0*%
%ADD31RoundRect,0.050000X-0.050000X-0.387500X0.050000X-0.387500X0.050000X0.387500X-0.050000X0.387500X0*%
%ADD32R,3.200000X3.200000*%
%ADD33C,1.500000*%
%ADD34C,2.000000*%
%ADD35RoundRect,0.225000X-0.250000X0.225000X-0.250000X-0.225000X0.250000X-0.225000X0.250000X0.225000X0*%
%ADD36RoundRect,0.150000X0.150000X-0.587500X0.150000X0.587500X-0.150000X0.587500X-0.150000X-0.587500X0*%
%ADD37RoundRect,0.225000X0.250000X-0.225000X0.250000X0.225000X-0.250000X0.225000X-0.250000X-0.225000X0*%
%ADD38RoundRect,0.200000X-0.275000X0.200000X-0.275000X-0.200000X0.275000X-0.200000X0.275000X0.200000X0*%
%ADD39RoundRect,0.150000X-0.512500X-0.150000X0.512500X-0.150000X0.512500X0.150000X-0.512500X0.150000X0*%
%ADD40RoundRect,0.218750X-0.218750X-0.256250X0.218750X-0.256250X0.218750X0.256250X-0.218750X0.256250X0*%
%ADD41R,1.700000X1.700000*%
%ADD42O,1.700000X1.700000*%
%ADD43RoundRect,0.200000X0.275000X-0.200000X0.275000X0.200000X-0.275000X0.200000X-0.275000X-0.200000X0*%
%ADD44RoundRect,0.140000X-0.170000X0.140000X-0.170000X-0.140000X0.170000X-0.140000X0.170000X0.140000X0*%
%ADD45RoundRect,0.200000X0.200000X0.275000X-0.200000X0.275000X-0.200000X-0.275000X0.200000X-0.275000X0*%
%ADD46C,0.650000*%
%ADD47RoundRect,0.150000X0.150000X0.575000X-0.150000X0.575000X-0.150000X-0.575000X0.150000X-0.575000X0*%
%ADD48RoundRect,0.075000X0.075000X0.650000X-0.075000X0.650000X-0.075000X-0.650000X0.075000X-0.650000X0*%
%ADD49O,1.000000X2.100000*%
%ADD50O,1.000000X1.600000*%
%ADD51RoundRect,0.243750X0.243750X0.456250X-0.243750X0.456250X-0.243750X-0.456250X0.243750X-0.456250X0*%
%ADD52RoundRect,0.218750X0.218750X0.256250X-0.218750X0.256250X-0.218750X-0.256250X0.218750X-0.256250X0*%
%ADD53RoundRect,0.250000X-0.475000X0.250000X-0.475000X-0.250000X0.475000X-0.250000X0.475000X0.250000X0*%
%ADD54C,1.700000*%
%ADD55RoundRect,0.200000X0.300000X-0.950000X0.300000X0.950000X-0.300000X0.950000X-0.300000X-0.950000X0*%
%ADD56R,1.000000X2.300000*%
%ADD57RoundRect,0.200000X-0.200000X-0.275000X0.200000X-0.275000X0.200000X0.275000X-0.200000X0.275000X0*%
%ADD58R,2.600000X1.550000*%
%ADD59RoundRect,0.200000X0.250000X-0.200000X0.250000X0.200000X-0.250000X0.200000X-0.250000X-0.200000X0*%
%ADD60RoundRect,0.075000X-0.075000X-0.175000X0.075000X-0.175000X0.075000X0.175000X-0.075000X0.175000X0*%
%ADD61RoundRect,0.062500X0.375000X0.062500X-0.375000X0.062500X-0.375000X-0.062500X0.375000X-0.062500X0*%
%ADD62RoundRect,0.062500X0.062500X0.375000X-0.062500X0.375000X-0.062500X-0.375000X0.062500X-0.375000X0*%
%ADD63R,5.600000X5.600000*%
%ADD64R,1.000000X2.510000*%
G04 APERTURE END LIST*
D10*
%TO.C,R23*%
X92720000Y-60600000D03*
X91700000Y-60600000D03*
%TD*%
D11*
%TO.C,U1*%
X76700000Y-29100000D03*
X76700000Y-26800000D03*
D12*
X70400000Y-26800000D03*
D11*
X76700000Y-24500000D03*
%TD*%
D13*
%TO.C,R43*%
X98712157Y-62527843D03*
X98712157Y-63547843D03*
%TD*%
D14*
%TO.C,C11*%
X93400000Y-36080000D03*
X93400000Y-35120000D03*
%TD*%
D10*
%TO.C,R26*%
X61810000Y-79500000D03*
X60790000Y-79500000D03*
%TD*%
D15*
%TO.C,R36*%
X52190000Y-62085714D03*
X53210000Y-62085714D03*
%TD*%
D16*
%TO.C,R19*%
X80200000Y-55010000D03*
X80200000Y-53990000D03*
%TD*%
D17*
%TO.C,SW2*%
X67200000Y-35250000D03*
X67200000Y-41750000D03*
%TD*%
D18*
%TO.C,C3*%
X78850000Y-24200000D03*
X80750000Y-24200000D03*
%TD*%
D19*
%TO.C,D5*%
X71150000Y-47462500D03*
X69250000Y-47462500D03*
X70200000Y-49337500D03*
%TD*%
D10*
%TO.C,R22*%
X93260000Y-54100000D03*
X92240000Y-54100000D03*
%TD*%
D20*
%TO.C,H3*%
X99700000Y-26500000D03*
%TD*%
D21*
%TO.C,C26*%
X70750000Y-51137500D03*
X69200000Y-51137500D03*
%TD*%
D22*
%TO.C,C8*%
X87570000Y-33640000D03*
X88530000Y-33640000D03*
%TD*%
D23*
%TO.C,SW3*%
X92750000Y-51000000D03*
X99250000Y-51000000D03*
%TD*%
D17*
%TO.C,SW5*%
X59200000Y-38750000D03*
X59200000Y-45250000D03*
%TD*%
D24*
%TO.C,C52*%
X89525000Y-80600000D03*
X91075000Y-80600000D03*
%TD*%
D25*
%TO.C,U5*%
X72045000Y-39800000D03*
X73315000Y-39800000D03*
X74585000Y-39800000D03*
X75855000Y-39800000D03*
X75855000Y-32600000D03*
X74585000Y-32600000D03*
X73315000Y-32600000D03*
X72045000Y-32600000D03*
%TD*%
D18*
%TO.C,C49*%
X89450000Y-78800000D03*
X91350000Y-78800000D03*
%TD*%
D10*
%TO.C,R27*%
X61810000Y-83350000D03*
X60790000Y-83350000D03*
%TD*%
D15*
%TO.C,R40*%
X52190000Y-72257142D03*
X53210000Y-72257142D03*
%TD*%
%TO.C,R14*%
X72240000Y-41400000D03*
X73260000Y-41400000D03*
%TD*%
D26*
%TO.C,D4*%
X72600000Y-48737500D03*
X72600000Y-47337500D03*
%TD*%
D16*
%TO.C,R44*%
X97212157Y-79357843D03*
X97212157Y-78337843D03*
%TD*%
D27*
%TO.C,C38*%
X70160000Y-67200000D03*
X69200000Y-67200000D03*
%TD*%
D14*
%TO.C,C21*%
X84600000Y-38180000D03*
X84600000Y-37220000D03*
%TD*%
D28*
%TO.C,D7*%
X60950000Y-80850000D03*
X61850000Y-80850000D03*
X61850000Y-82250000D03*
X60950000Y-82250000D03*
%TD*%
D29*
%TO.C,Y1*%
X85250000Y-52900000D03*
X85250000Y-55100000D03*
X86950000Y-55100000D03*
X86950000Y-52900000D03*
%TD*%
D16*
%TO.C,R29*%
X56400000Y-44010000D03*
X56400000Y-42990000D03*
%TD*%
D30*
%TO.C,U4*%
X81762500Y-41900000D03*
X81762500Y-42300000D03*
X81762500Y-42700000D03*
X81762500Y-43100000D03*
X81762500Y-43500000D03*
X81762500Y-43900000D03*
X81762500Y-44300000D03*
X81762500Y-44700000D03*
X81762500Y-45100000D03*
X81762500Y-45500000D03*
X81762500Y-45900000D03*
X81762500Y-46300000D03*
X81762500Y-46700000D03*
X81762500Y-47100000D03*
D31*
X82600000Y-47937500D03*
X83000000Y-47937500D03*
X83400000Y-47937500D03*
X83800000Y-47937500D03*
X84200000Y-47937500D03*
X84600000Y-47937500D03*
X85000000Y-47937500D03*
X85400000Y-47937500D03*
X85800000Y-47937500D03*
X86200000Y-47937500D03*
X86600000Y-47937500D03*
X87000000Y-47937500D03*
X87400000Y-47937500D03*
X87800000Y-47937500D03*
D30*
X88637500Y-47100000D03*
X88637500Y-46700000D03*
X88637500Y-46300000D03*
X88637500Y-45900000D03*
X88637500Y-45500000D03*
X88637500Y-45100000D03*
X88637500Y-44700000D03*
X88637500Y-44300000D03*
X88637500Y-43900000D03*
X88637500Y-43500000D03*
X88637500Y-43100000D03*
X88637500Y-42700000D03*
X88637500Y-42300000D03*
X88637500Y-41900000D03*
D31*
X87800000Y-41062500D03*
X87400000Y-41062500D03*
X87000000Y-41062500D03*
X86600000Y-41062500D03*
X86200000Y-41062500D03*
X85800000Y-41062500D03*
X85400000Y-41062500D03*
X85000000Y-41062500D03*
X84600000Y-41062500D03*
X84200000Y-41062500D03*
X83800000Y-41062500D03*
X83400000Y-41062500D03*
X83000000Y-41062500D03*
X82600000Y-41062500D03*
D32*
X85200000Y-44500000D03*
%TD*%
D20*
%TO.C,H1*%
X54200000Y-84000000D03*
%TD*%
D15*
%TO.C,R37*%
X52190000Y-64628571D03*
X53210000Y-64628571D03*
%TD*%
D13*
%TO.C,R48*%
X92712157Y-62527843D03*
X92712157Y-63547843D03*
%TD*%
D33*
%TO.C,TP3*%
X69300000Y-63300000D03*
%TD*%
D34*
%TO.C,FID2*%
X102200000Y-54500000D03*
%TD*%
D23*
%TO.C,SW1*%
X95450000Y-33500000D03*
X101950000Y-33500000D03*
%TD*%
D35*
%TO.C,C35*%
X67600000Y-64825000D03*
X67600000Y-66375000D03*
%TD*%
D15*
%TO.C,R35*%
X52190000Y-59542857D03*
X53210000Y-59542857D03*
%TD*%
%TO.C,R41*%
X52190000Y-74800000D03*
X53210000Y-74800000D03*
%TD*%
D14*
%TO.C,C47*%
X56400000Y-42080000D03*
X56400000Y-41120000D03*
%TD*%
D36*
%TO.C,Q1*%
X53160000Y-37137500D03*
X55060000Y-37137500D03*
X54110000Y-35262500D03*
%TD*%
D13*
%TO.C,R4*%
X92400000Y-35090000D03*
X92400000Y-36110000D03*
%TD*%
D24*
%TO.C,C51*%
X66850000Y-80900000D03*
X68400000Y-80900000D03*
%TD*%
D14*
%TO.C,C29*%
X76400000Y-62280000D03*
X76400000Y-61320000D03*
%TD*%
D13*
%TO.C,R42*%
X97212157Y-62527843D03*
X97212157Y-63547843D03*
%TD*%
D37*
%TO.C,C13*%
X90650000Y-38475000D03*
X90650000Y-36925000D03*
%TD*%
D15*
%TO.C,R24*%
X71490000Y-71200000D03*
X72510000Y-71200000D03*
%TD*%
D21*
%TO.C,C39*%
X69975000Y-68400000D03*
X68425000Y-68400000D03*
%TD*%
D38*
%TO.C,R50*%
X62000000Y-29375000D03*
X62000000Y-31025000D03*
%TD*%
D15*
%TO.C,R21*%
X93600000Y-60600000D03*
X94620000Y-60600000D03*
%TD*%
D37*
%TO.C,C30*%
X75200000Y-61975000D03*
X75200000Y-60425000D03*
%TD*%
D39*
%TO.C,U6*%
X55662500Y-48650000D03*
X55662500Y-49600000D03*
X55662500Y-50550000D03*
X57937500Y-50550000D03*
X57937500Y-48650000D03*
%TD*%
D40*
%TO.C,D3*%
X94012500Y-44800000D03*
X95587500Y-44800000D03*
%TD*%
D15*
%TO.C,R20*%
X94140000Y-54100000D03*
X95160000Y-54100000D03*
%TD*%
D27*
%TO.C,C22*%
X80130000Y-41100000D03*
X79170000Y-41100000D03*
%TD*%
D41*
%TO.C,J10*%
X100875000Y-46600000D03*
D42*
X98335000Y-46600000D03*
%TD*%
D43*
%TO.C,R3*%
X94890000Y-30365000D03*
X94890000Y-28715000D03*
%TD*%
D22*
%TO.C,C45*%
X95520000Y-60600000D03*
X96480000Y-60600000D03*
%TD*%
D34*
%TO.C,FID3*%
X60700000Y-86500000D03*
%TD*%
D16*
%TO.C,R49*%
X98712157Y-79357843D03*
X98712157Y-78337843D03*
%TD*%
D15*
%TO.C,R38*%
X52190000Y-67171428D03*
X53210000Y-67171428D03*
%TD*%
D40*
%TO.C,D9*%
X53022500Y-28100000D03*
X54597500Y-28100000D03*
%TD*%
D13*
%TO.C,R18*%
X80800000Y-60690000D03*
X80800000Y-61710000D03*
%TD*%
D33*
%TO.C,TP4*%
X73700000Y-73000000D03*
%TD*%
D13*
%TO.C,R2*%
X82550000Y-32090000D03*
X82550000Y-33110000D03*
%TD*%
D15*
%TO.C,R34*%
X52190000Y-57000000D03*
X53210000Y-57000000D03*
%TD*%
D16*
%TO.C,R46*%
X92712157Y-79357843D03*
X92712157Y-78337843D03*
%TD*%
%TO.C,R33*%
X56310000Y-35710000D03*
X56310000Y-34690000D03*
%TD*%
D20*
%TO.C,H2*%
X83700000Y-80000000D03*
%TD*%
D13*
%TO.C,R1*%
X90650000Y-32090000D03*
X90650000Y-33110000D03*
%TD*%
D33*
%TO.C,TP2*%
X60200000Y-50800000D03*
%TD*%
D44*
%TO.C,C14*%
X83900000Y-53920000D03*
X83900000Y-54880000D03*
%TD*%
D45*
%TO.C,D1*%
X89375000Y-32440000D03*
X87725000Y-32440000D03*
%TD*%
D33*
%TO.C,TP5*%
X54700000Y-42000000D03*
%TD*%
D13*
%TO.C,R47*%
X94212157Y-62527843D03*
X94212157Y-63547843D03*
%TD*%
D44*
%TO.C,C19*%
X86200000Y-49520000D03*
X86200000Y-50480000D03*
%TD*%
D35*
%TO.C,C32*%
X84400000Y-72625000D03*
X84400000Y-74175000D03*
%TD*%
D10*
%TO.C,R32*%
X54220000Y-38662500D03*
X53200000Y-38662500D03*
%TD*%
D33*
%TO.C,TP1*%
X72700000Y-50637500D03*
%TD*%
D44*
%TO.C,C15*%
X88300000Y-54820000D03*
X88300000Y-55780000D03*
%TD*%
D37*
%TO.C,C34*%
X59800000Y-48775000D03*
X59800000Y-47225000D03*
%TD*%
D35*
%TO.C,C46*%
X59550000Y-82325000D03*
X59550000Y-83875000D03*
%TD*%
D14*
%TO.C,C5*%
X68650000Y-26500000D03*
X68650000Y-25540000D03*
%TD*%
D16*
%TO.C,R9*%
X96000000Y-48010000D03*
X96000000Y-46990000D03*
%TD*%
D15*
%TO.C,R8*%
X94002500Y-43500000D03*
X95022500Y-43500000D03*
%TD*%
D40*
%TO.C,D8*%
X53122500Y-33500000D03*
X54697500Y-33500000D03*
%TD*%
D44*
%TO.C,C40*%
X71200000Y-65120000D03*
X71200000Y-66080000D03*
%TD*%
D15*
%TO.C,R5*%
X70340000Y-41400000D03*
X71360000Y-41400000D03*
%TD*%
D46*
%TO.C,J4*%
X90090000Y-28100000D03*
X84310000Y-28100000D03*
D47*
X90450000Y-29545000D03*
X89650000Y-29545000D03*
D48*
X88450000Y-29545000D03*
X87450000Y-29545000D03*
X86950000Y-29545000D03*
X85950000Y-29545000D03*
D47*
X84750000Y-29545000D03*
X83950000Y-29545000D03*
X83950000Y-29545000D03*
X84750000Y-29545000D03*
D48*
X85450000Y-29545000D03*
X86450000Y-29545000D03*
X87950000Y-29545000D03*
X88950000Y-29545000D03*
D47*
X89650000Y-29545000D03*
X90450000Y-29545000D03*
D49*
X91520000Y-28630000D03*
D50*
X91520000Y-24450000D03*
D49*
X82880000Y-28630000D03*
D50*
X82880000Y-24450000D03*
%TD*%
D44*
%TO.C,C6*%
X91650000Y-32120000D03*
X91650000Y-33080000D03*
%TD*%
D23*
%TO.C,SW4*%
X92750000Y-57500000D03*
X99250000Y-57500000D03*
%TD*%
D18*
%TO.C,C4*%
X65300000Y-25900000D03*
X67200000Y-25900000D03*
%TD*%
D22*
%TO.C,C24*%
X90370000Y-45600000D03*
X91330000Y-45600000D03*
%TD*%
D27*
%TO.C,C25*%
X71300000Y-45937500D03*
X70340000Y-45937500D03*
%TD*%
D51*
%TO.C,F1*%
X80737500Y-26200000D03*
X78862500Y-26200000D03*
%TD*%
D52*
%TO.C,D6*%
X88787500Y-66200000D03*
X87212500Y-66200000D03*
%TD*%
D24*
%TO.C,C1*%
X79225000Y-27900000D03*
X80775000Y-27900000D03*
%TD*%
D14*
%TO.C,C23*%
X89450000Y-38780000D03*
X89450000Y-37820000D03*
%TD*%
D10*
%TO.C,R16*%
X88000000Y-67500000D03*
X86980000Y-67500000D03*
%TD*%
D35*
%TO.C,C33*%
X54000000Y-48825000D03*
X54000000Y-50375000D03*
%TD*%
D10*
%TO.C,R6*%
X92960000Y-34100000D03*
X91940000Y-34100000D03*
%TD*%
D53*
%TO.C,C50*%
X95500000Y-36650000D03*
X95500000Y-38550000D03*
%TD*%
D15*
%TO.C,R39*%
X52190000Y-69714285D03*
X53210000Y-69714285D03*
%TD*%
D41*
%TO.C,J5*%
X101235000Y-83575000D03*
D42*
X98695000Y-83575000D03*
X96155000Y-83575000D03*
X93615000Y-83575000D03*
X91075000Y-83575000D03*
D54*
X88535000Y-83575000D03*
D42*
X101235000Y-86115000D03*
X98695000Y-86115000D03*
X96155000Y-86115000D03*
X93615000Y-86115000D03*
X91075000Y-86115000D03*
X88535000Y-86115000D03*
%TD*%
D27*
%TO.C,C37*%
X99580000Y-54100000D03*
X98620000Y-54100000D03*
%TD*%
D44*
%TO.C,C43*%
X68400000Y-72520000D03*
X68400000Y-73480000D03*
%TD*%
D55*
%TO.C,U3*%
X92700000Y-76450000D03*
D56*
X94200000Y-76450000D03*
X95700000Y-76450000D03*
X97200000Y-76450000D03*
X98700000Y-76450000D03*
X98700000Y-65550000D03*
X97200000Y-65550000D03*
X95700000Y-65550000D03*
X94200000Y-65550000D03*
X92700000Y-65550000D03*
%TD*%
D41*
%TO.C,J3*%
X80915000Y-86115000D03*
D42*
X83455000Y-86115000D03*
X85995000Y-86115000D03*
%TD*%
D22*
%TO.C,C44*%
X96070000Y-54100000D03*
X97030000Y-54100000D03*
%TD*%
D57*
%TO.C,D2*%
X84725000Y-32440000D03*
X86375000Y-32440000D03*
%TD*%
D16*
%TO.C,R45*%
X94212157Y-79357843D03*
X94212157Y-78337843D03*
%TD*%
D44*
%TO.C,C20*%
X87200000Y-49520000D03*
X87200000Y-50480000D03*
%TD*%
D41*
%TO.C,J1*%
X60000000Y-25000000D03*
D42*
X62540000Y-25000000D03*
%TD*%
D16*
%TO.C,R28*%
X56400000Y-46010000D03*
X56400000Y-44990000D03*
%TD*%
D37*
%TO.C,C10*%
X93390000Y-30315000D03*
X93390000Y-28765000D03*
%TD*%
D16*
%TO.C,R17*%
X70000000Y-65810000D03*
X70000000Y-64790000D03*
%TD*%
D10*
%TO.C,R11*%
X75660000Y-41400000D03*
X74640000Y-41400000D03*
%TD*%
D34*
%TO.C,FID1*%
X52700000Y-24500000D03*
%TD*%
D15*
%TO.C,R31*%
X53690000Y-32000000D03*
X54710000Y-32000000D03*
%TD*%
D27*
%TO.C,C9*%
X86650000Y-33640000D03*
X85690000Y-33640000D03*
%TD*%
D58*
%TO.C,SW6*%
X56500000Y-55610000D03*
X56500000Y-58150000D03*
X56500000Y-60690000D03*
X56500000Y-63230000D03*
X56500000Y-65770000D03*
X56500000Y-68310000D03*
X56500000Y-70850000D03*
X56500000Y-73390000D03*
X64900000Y-73390000D03*
X64900000Y-70850000D03*
X64900000Y-68310000D03*
X64900000Y-65770000D03*
X64900000Y-63230000D03*
X64900000Y-60690000D03*
X64900000Y-58150000D03*
X64900000Y-55610000D03*
%TD*%
D59*
%TO.C,X1*%
X69675000Y-73885000D03*
X71525000Y-73885000D03*
X71525000Y-72435000D03*
X69675000Y-72435000D03*
%TD*%
D10*
%TO.C,R10*%
X86310000Y-51400000D03*
X85290000Y-51400000D03*
%TD*%
D16*
%TO.C,R7*%
X70250000Y-35510000D03*
X70250000Y-34490000D03*
%TD*%
D22*
%TO.C,C16*%
X70470000Y-31000000D03*
X71430000Y-31000000D03*
%TD*%
D35*
%TO.C,C12*%
X88250000Y-36925000D03*
X88250000Y-38475000D03*
%TD*%
D14*
%TO.C,C18*%
X85600000Y-38180000D03*
X85600000Y-37220000D03*
%TD*%
D41*
%TO.C,J7*%
X100900000Y-42825000D03*
D42*
X98360000Y-42825000D03*
X100900000Y-40285000D03*
X98360000Y-40285000D03*
X100900000Y-37745000D03*
X98360000Y-37745000D03*
%TD*%
D24*
%TO.C,C2*%
X79225000Y-31000000D03*
X80775000Y-31000000D03*
%TD*%
D44*
%TO.C,C7*%
X83550000Y-32120000D03*
X83550000Y-33080000D03*
%TD*%
D27*
%TO.C,C27*%
X72280000Y-68800000D03*
X71320000Y-68800000D03*
%TD*%
D60*
%TO.C,U2*%
X94050000Y-26700000D03*
X94750000Y-26700000D03*
%TD*%
D41*
%TO.C,J6*%
X78375000Y-83575000D03*
D42*
X75835000Y-83575000D03*
X73295000Y-83575000D03*
X70755000Y-83575000D03*
X68215000Y-83575000D03*
D54*
X65675000Y-83575000D03*
D42*
X78375000Y-86115000D03*
X75835000Y-86115000D03*
X73295000Y-86115000D03*
X70755000Y-86115000D03*
X68215000Y-86115000D03*
X65675000Y-86115000D03*
%TD*%
D27*
%TO.C,C17*%
X78680000Y-46200000D03*
X77720000Y-46200000D03*
%TD*%
D18*
%TO.C,C48*%
X66750000Y-79100000D03*
X68650000Y-79100000D03*
%TD*%
D14*
%TO.C,C42*%
X74000000Y-62280000D03*
X74000000Y-61320000D03*
%TD*%
D40*
%TO.C,D10*%
X53112500Y-30800000D03*
X54687500Y-30800000D03*
%TD*%
D61*
%TO.C,U7*%
X81962500Y-70390000D03*
X81962500Y-69890000D03*
X81962500Y-69390000D03*
X81962500Y-68890000D03*
X81962500Y-68390000D03*
X81962500Y-67890000D03*
X81962500Y-67390000D03*
X81962500Y-66890000D03*
X81962500Y-66390000D03*
X81962500Y-65890000D03*
X81962500Y-65390000D03*
X81962500Y-64890000D03*
D62*
X81275000Y-64202500D03*
X80775000Y-64202500D03*
X80275000Y-64202500D03*
X79775000Y-64202500D03*
X79275000Y-64202500D03*
X78775000Y-64202500D03*
X78275000Y-64202500D03*
X77775000Y-64202500D03*
X77275000Y-64202500D03*
X76775000Y-64202500D03*
X76275000Y-64202500D03*
X75775000Y-64202500D03*
D61*
X75087500Y-64890000D03*
X75087500Y-65390000D03*
X75087500Y-65890000D03*
X75087500Y-66390000D03*
X75087500Y-66890000D03*
X75087500Y-67390000D03*
X75087500Y-67890000D03*
X75087500Y-68390000D03*
X75087500Y-68890000D03*
X75087500Y-69390000D03*
X75087500Y-69890000D03*
X75087500Y-70390000D03*
D62*
X75775000Y-71077500D03*
X76275000Y-71077500D03*
X76775000Y-71077500D03*
X77275000Y-71077500D03*
X77775000Y-71077500D03*
X78275000Y-71077500D03*
X78775000Y-71077500D03*
X79275000Y-71077500D03*
X79775000Y-71077500D03*
X80275000Y-71077500D03*
X80775000Y-71077500D03*
X81275000Y-71077500D03*
D63*
X78525000Y-67640000D03*
%TD*%
D22*
%TO.C,C41*%
X84720000Y-68800000D03*
X85680000Y-68800000D03*
%TD*%
D10*
%TO.C,R13*%
X77660000Y-31000000D03*
X76640000Y-31000000D03*
%TD*%
D44*
%TO.C,C36*%
X68800000Y-64820000D03*
X68800000Y-65780000D03*
%TD*%
D15*
%TO.C,R12*%
X72340000Y-31000000D03*
X73360000Y-31000000D03*
%TD*%
D64*
%TO.C,J2*%
X64780000Y-28845000D03*
X67320000Y-32155000D03*
%TD*%
D21*
%TO.C,C28*%
X71675000Y-70000000D03*
X70125000Y-70000000D03*
%TD*%
D52*
%TO.C,FB1*%
X80787500Y-29400000D03*
X79212500Y-29400000D03*
%TD*%
D10*
%TO.C,R15*%
X75660000Y-31000000D03*
X74640000Y-31000000D03*
%TD*%
%TO.C,R30*%
X54820000Y-29400000D03*
X53800000Y-29400000D03*
%TD*%
D16*
%TO.C,R25*%
X59700000Y-80910000D03*
X59700000Y-79890000D03*
%TD*%
D44*
%TO.C,C31*%
X83200000Y-72320000D03*
X83200000Y-73280000D03*
%TD*%
M02*
