  0
SECTION
  2
HEADER
  9
$ANGBASE
  50
0.0
  9
$ANGDIR
  70
1
  9
$MEASUREMENT
  70
1
  0
ENDSEC
  0
SECTION
  2
TABLES
  0
TABLE
  2
LTYPE
  70
4
  0
LTYPE
  5
40F
  2
CONTINUOUS
  70
0
  3
Solid line
  72
65
  73
0
  40
0.0
  0
LTYPE
  5
410
  2
DASHDOT
 70
0
  3
Dash Dot ____ _ ____ _
 72
65
 73
4
 40
2.0
 49
1.25
 49
-0.25
 49
0.25
 49
-0.25
  0
LTYPE
  5
411
  2
DASHED
 70
0
  3
Dashed __ __ __ __ __
 72
65
 73
2
 40
0.75
 49
0.5
 49
-0.25
  0
LTYPE
  5
43B
  2
DOTTED
 70
0
  3
Dotted .  .  .  .
 72
65
 73
2
 40
0.2
 49
0.0
 49
-0.2
  0
ENDTAB
  0
TABLE
  2
STYLE
  70
4
  0
STYLE
  2
KICAD
  70
0
  40
0
  41
1
  42
1
  50
0
  71
0
  3
isocp.shx
  0
STYLE
  2
KICADB
  70
0
  40
0
  41
1
  42
1
  50
0
  71
0
  3
isocp.shx
  0
STYLE
  2
KICADI
  70
0
  40
0
  41
1
  42
1
  50
15
  71
0
  3
isocp.shx
  0
STYLE
  2
KICADBI
  70
0
  40
0
  41
1
  42
1
  50
15
  71
0
  3
isocp.shx
  0
ENDTAB
  0
TABLE
  2
LAYER
  70
1
  0
LAYER
  2
BLACK
  70
0
  62
7
  6
CONTINUOUS
  0
ENDTAB
  0
ENDSEC
  0
SECTION
  2
ENTITIES
0
ARC
8
BLACK
10
100.6999999999999886
20
-85.
40
3.
50
-90.00000000
51
-0.00000000
0
LINE
8
BLACK
6
CONTINUOUS
10
50.1999999999999957
20
-85.
11
50.1999999999999957
21
-25.5
0
LINE
8
BLACK
6
CONTINUOUS
10
100.6999999999999886
20
-88.
11
53.1999999999999957
21
-88.
0
LINE
8
BLACK
6
CONTINUOUS
10
103.6999999999999886
20
-25.5
11
103.6999999999999886
21
-85.
0
ARC
8
BLACK
10
53.1999999999999957
20
-25.5
40
3.
50
90.00000000
51
180.00000000
0
LINE
8
BLACK
6
CONTINUOUS
10
53.1999999999999957
20
-22.5
11
100.6999999999999886
21
-22.5
0
ARC
8
BLACK
10
100.6999999999999886
20
-25.5
40
3.
50
0.00000000
51
90.00000000
0
ARC
8
BLACK
10
53.1999999999999957
20
-85.
40
3.
50
-180.00000000
51
-90.00000000
0
LINE
8
BLACK
6
CONTINUOUS
10
83.9849999999999994
20
-27.7749999999999986
11
84.6349999999999909
21
-28.4249999999999972
0
LINE
8
BLACK
6
CONTINUOUS
10
84.6349999999999909
20
-27.7749999999999986
11
83.9849999999999994
21
-28.4249999999999972
0
LINE
8
BLACK
6
CONTINUOUS
10
89.7650000000000006
20
-27.7749999999999986
11
90.414999999999992
21
-28.4249999999999972
0
LINE
8
BLACK
6
CONTINUOUS
10
90.414999999999992
20
-27.7749999999999986
11
89.7650000000000006
21
-28.4249999999999972
0
LINE
8
BLACK
6
CONTINUOUS
10
52.7477680000000007
20
-91.1748379999999941
11
52.7477680000000007
21
-89.1748379999999941
0
LINE
8
BLACK
6
CONTINUOUS
10
52.7477680000000007
20
-89.1748379999999941
11
53.2239579999999961
21
-89.1748379999999941
0
LINE
8
BLACK
6
CONTINUOUS
10
53.2239579999999961
20
-89.1748379999999941
11
53.5096729999999994
21
-89.2700759999999889
0
LINE
8
BLACK
6
CONTINUOUS
10
53.5096729999999994
20
-89.2700759999999889
11
53.7001489999999961
21
-89.4605519999999927
0
LINE
8
BLACK
6
CONTINUOUS
10
53.7001489999999961
20
-89.4605519999999927
11
53.7953869999999981
21
-89.6510279999999966
0
LINE
8
BLACK
6
CONTINUOUS
10
53.7953869999999981
20
-89.6510279999999966
11
53.890625
21
-90.0319799999999901
0
LINE
8
BLACK
6
CONTINUOUS
10
53.890625
20
-90.0319799999999901
11
53.890625
21
-90.3176950000000005
0
LINE
8
BLACK
6
CONTINUOUS
10
53.890625
20
-90.3176950000000005
11
53.7953869999999981
21
-90.698646999999994
0
LINE
8
BLACK
6
CONTINUOUS
10
53.7953869999999981
20
-90.698646999999994
11
53.7001489999999961
21
-90.8891229999999979
0
LINE
8
BLACK
6
CONTINUOUS
10
53.7001489999999961
20
-90.8891229999999979
11
53.5096729999999994
21
-91.0795999999999992
0
LINE
8
BLACK
6
CONTINUOUS
10
53.5096729999999994
20
-91.0795999999999992
11
53.2239579999999961
21
-91.1748379999999941
0
LINE
8
BLACK
6
CONTINUOUS
10
53.2239579999999961
20
-91.1748379999999941
11
52.7477680000000007
21
-91.1748379999999941
0
LINE
8
BLACK
6
CONTINUOUS
10
54.7477680000000007
20
-91.1748379999999941
11
54.7477680000000007
21
-89.8415040000000005
0
LINE
8
BLACK
6
CONTINUOUS
10
54.7477680000000007
20
-90.2224569999999915
11
54.8430059999999955
21
-90.0319799999999901
0
LINE
8
BLACK
6
CONTINUOUS
10
54.8430059999999955
20
-90.0319799999999901
11
54.9382439999999974
21
-89.9367419999999953
0
LINE
8
BLACK
6
CONTINUOUS
10
54.9382439999999974
20
-89.9367419999999953
11
55.1287199999999942
21
-89.8415040000000005
0
LINE
8
BLACK
6
CONTINUOUS
10
55.1287199999999942
20
-89.8415040000000005
11
55.3191969999999955
21
-89.8415040000000005
0
LINE
8
BLACK
6
CONTINUOUS
10
55.9858629999999948
20
-91.1748379999999941
11
55.9858629999999948
21
-89.8415040000000005
0
LINE
8
BLACK
6
CONTINUOUS
10
55.9858629999999948
20
-89.1748379999999941
11
55.890625
21
-89.2700759999999889
0
LINE
8
BLACK
6
CONTINUOUS
10
55.890625
20
-89.2700759999999889
11
55.9858629999999948
21
-89.3653139999999979
0
LINE
8
BLACK
6
CONTINUOUS
10
55.9858629999999948
20
-89.3653139999999979
11
56.0811009999999968
21
-89.2700759999999889
0
LINE
8
BLACK
6
CONTINUOUS
10
56.0811009999999968
20
-89.2700759999999889
11
55.9858629999999948
21
-89.1748379999999941
0
LINE
8
BLACK
6
CONTINUOUS
10
55.9858629999999948
20
-89.1748379999999941
11
55.9858629999999948
21
-89.3653139999999979
0
LINE
8
BLACK
6
CONTINUOUS
10
57.2239579999999961
20
-91.1748379999999941
11
57.0334819999999993
21
-91.0795999999999992
0
LINE
8
BLACK
6
CONTINUOUS
10
57.0334819999999993
20
-91.0795999999999992
11
56.9382439999999974
21
-90.8891229999999979
0
LINE
8
BLACK
6
CONTINUOUS
10
56.9382439999999974
20
-90.8891229999999979
11
56.9382439999999974
21
-89.1748379999999941
0
LINE
8
BLACK
6
CONTINUOUS
10
58.2715770000000006
20
-91.1748379999999941
11
58.0811009999999968
21
-91.0795999999999992
0
LINE
8
BLACK
6
CONTINUOUS
10
58.0811009999999968
20
-91.0795999999999992
11
57.9858629999999948
21
-90.8891229999999979
0
LINE
8
BLACK
6
CONTINUOUS
10
57.9858629999999948
20
-90.8891229999999979
11
57.9858629999999948
21
-89.1748379999999941
0
LINE
8
BLACK
6
CONTINUOUS
10
60.5572919999999968
20
-91.1748379999999941
11
60.5572919999999968
21
-89.1748379999999941
0
LINE
8
BLACK
6
CONTINUOUS
10
60.5572919999999968
20
-89.1748379999999941
11
61.2239590000000007
21
-90.6034089999999992
0
LINE
8
BLACK
6
CONTINUOUS
10
61.2239590000000007
20
-90.6034089999999992
11
61.890625
21
-89.1748379999999941
0
LINE
8
BLACK
6
CONTINUOUS
10
61.890625
20
-89.1748379999999941
11
61.890625
21
-91.1748379999999941
0
LINE
8
BLACK
6
CONTINUOUS
10
63.7001489999999961
20
-91.1748379999999941
11
63.7001489999999961
21
-90.1272189999999966
0
LINE
8
BLACK
6
CONTINUOUS
10
63.7001489999999961
20
-90.1272189999999966
11
63.6049109999999942
21
-89.9367419999999953
0
LINE
8
BLACK
6
CONTINUOUS
10
63.6049109999999942
20
-89.9367419999999953
11
63.4144349999999974
21
-89.8415040000000005
0
LINE
8
BLACK
6
CONTINUOUS
10
63.4144349999999974
20
-89.8415040000000005
11
63.0334819999999993
21
-89.8415040000000005
0
LINE
8
BLACK
6
CONTINUOUS
10
63.0334819999999993
20
-89.8415040000000005
11
62.8430059999999955
21
-89.9367419999999953
0
LINE
8
BLACK
6
CONTINUOUS
10
63.7001489999999961
20
-91.0795999999999992
11
63.5096729999999994
21
-91.1748379999999941
0
LINE
8
BLACK
6
CONTINUOUS
10
63.5096729999999994
20
-91.1748379999999941
11
63.0334819999999993
21
-91.1748379999999941
0
LINE
8
BLACK
6
CONTINUOUS
10
63.0334819999999993
20
-91.1748379999999941
11
62.8430059999999955
21
-91.0795999999999992
0
LINE
8
BLACK
6
CONTINUOUS
10
62.8430059999999955
20
-91.0795999999999992
11
62.7477680000000007
21
-90.8891229999999979
0
LINE
8
BLACK
6
CONTINUOUS
10
62.7477680000000007
20
-90.8891229999999979
11
62.7477680000000007
21
-90.698646999999994
0
LINE
8
BLACK
6
CONTINUOUS
10
62.7477680000000007
20
-90.698646999999994
11
62.8430059999999955
21
-90.5081709999999902
0
LINE
8
BLACK
6
CONTINUOUS
10
62.8430059999999955
20
-90.5081709999999902
11
63.0334819999999993
21
-90.4129329999999953
0
LINE
8
BLACK
6
CONTINUOUS
10
63.0334819999999993
20
-90.4129329999999953
11
63.5096729999999994
21
-90.4129329999999953
0
LINE
8
BLACK
6
CONTINUOUS
10
63.5096729999999994
20
-90.4129329999999953
11
63.7001489999999961
21
-90.3176950000000005
0
LINE
8
BLACK
6
CONTINUOUS
10
64.6525299999999987
20
-89.8415040000000005
11
64.6525299999999987
21
-91.8415040000000005
0
LINE
8
BLACK
6
CONTINUOUS
10
64.6525299999999987
20
-89.9367419999999953
11
64.8430060000000026
21
-89.8415040000000005
0
LINE
8
BLACK
6
CONTINUOUS
10
64.8430060000000026
20
-89.8415040000000005
11
65.2239589999999936
21
-89.8415040000000005
0
LINE
8
BLACK
6
CONTINUOUS
10
65.2239589999999936
20
-89.8415040000000005
11
65.4144349999999974
21
-89.9367419999999953
0
LINE
8
BLACK
6
CONTINUOUS
10
65.4144349999999974
20
-89.9367419999999953
11
65.5096729999999923
21
-90.0319799999999901
0
LINE
8
BLACK
6
CONTINUOUS
10
65.5096729999999923
20
-90.0319799999999901
11
65.6049110000000013
21
-90.2224569999999915
0
LINE
8
BLACK
6
CONTINUOUS
10
65.6049110000000013
20
-90.2224569999999915
11
65.6049110000000013
21
-90.7938849999999888
0
LINE
8
BLACK
6
CONTINUOUS
10
65.6049110000000013
20
-90.7938849999999888
11
65.5096729999999923
21
-90.9843609999999927
0
LINE
8
BLACK
6
CONTINUOUS
10
65.5096729999999923
20
-90.9843609999999927
11
65.4144349999999974
21
-91.0795999999999992
0
LINE
8
BLACK
6
CONTINUOUS
10
65.4144349999999974
20
-91.0795999999999992
11
65.2239589999999936
21
-91.1748379999999941
0
LINE
8
BLACK
6
CONTINUOUS
10
65.2239589999999936
20
-91.1748379999999941
11
64.8430060000000026
21
-91.1748379999999941
0
LINE
8
BLACK
6
CONTINUOUS
10
64.8430060000000026
20
-91.1748379999999941
11
64.6525299999999987
21
-91.0795999999999992
0
LINE
8
BLACK
6
CONTINUOUS
10
66.4620539999999949
20
-90.9843609999999927
11
66.5572920000000039
21
-91.0795999999999992
0
LINE
8
BLACK
6
CONTINUOUS
10
66.5572920000000039
20
-91.0795999999999992
11
66.4620539999999949
21
-91.1748379999999941
0
LINE
8
BLACK
6
CONTINUOUS
10
66.4620539999999949
20
-91.1748379999999941
11
66.366816
21
-91.0795999999999992
0
LINE
8
BLACK
6
CONTINUOUS
10
66.366816
20
-91.0795999999999992
11
66.4620539999999949
21
-90.9843609999999927
0
LINE
8
BLACK
6
CONTINUOUS
10
66.4620539999999949
20
-90.9843609999999927
11
66.4620539999999949
21
-91.1748379999999941
0
LINE
8
BLACK
6
CONTINUOUS
10
66.4620539999999949
20
-89.9367419999999953
11
66.5572920000000039
21
-90.0319799999999901
0
LINE
8
BLACK
6
CONTINUOUS
10
66.5572920000000039
20
-90.0319799999999901
11
66.4620539999999949
21
-90.1272189999999966
0
LINE
8
BLACK
6
CONTINUOUS
10
66.4620539999999949
20
-90.1272189999999966
11
66.366816
21
-90.0319799999999901
0
LINE
8
BLACK
6
CONTINUOUS
10
66.366816
20
-90.0319799999999901
11
66.4620539999999949
21
-89.9367419999999953
0
LINE
8
BLACK
6
CONTINUOUS
10
66.4620539999999949
20
-89.9367419999999953
11
66.4620539999999949
21
-90.1272189999999966
0
LINE
8
BLACK
6
CONTINUOUS
10
49.4899999999999949
20
-94.1349999999999909
11
50.1400000000000006
21
-94.7849999999999966
0
LINE
8
BLACK
6
CONTINUOUS
10
50.1400000000000006
20
-94.1349999999999909
11
49.4899999999999949
21
-94.7849999999999966
0
LINE
8
BLACK
6
CONTINUOUS
10
53.1287199999999942
20
-93.3748379999999969
11
53.3191969999999955
21
-93.3748379999999969
0
LINE
8
BLACK
6
CONTINUOUS
10
53.3191969999999955
20
-93.3748379999999969
11
53.5096729999999994
21
-93.4700759999999917
0
LINE
8
BLACK
6
CONTINUOUS
10
53.5096729999999994
20
-93.4700759999999917
11
53.6049109999999942
21
-93.5653140000000008
0
LINE
8
BLACK
6
CONTINUOUS
10
53.6049109999999942
20
-93.5653140000000008
11
53.7001489999999961
21
-93.7557899999999904
0
LINE
8
BLACK
6
CONTINUOUS
10
53.7001489999999961
20
-93.7557899999999904
11
53.7953869999999981
21
-94.1367419999999981
0
LINE
8
BLACK
6
CONTINUOUS
10
53.7953869999999981
20
-94.1367419999999981
11
53.7953869999999981
21
-94.6129329999999982
0
LINE
8
BLACK
6
CONTINUOUS
10
53.7953869999999981
20
-94.6129329999999982
11
53.7001489999999961
21
-94.9938849999999917
0
LINE
8
BLACK
6
CONTINUOUS
10
53.7001489999999961
20
-94.9938849999999917
11
53.6049109999999942
21
-95.1843609999999956
0
LINE
8
BLACK
6
CONTINUOUS
10
53.6049109999999942
20
-95.1843609999999956
11
53.5096729999999994
21
-95.2796000000000021
0
LINE
8
BLACK
6
CONTINUOUS
10
53.5096729999999994
20
-95.2796000000000021
11
53.3191969999999955
21
-95.3748379999999969
0
LINE
8
BLACK
6
CONTINUOUS
10
53.3191969999999955
20
-95.3748379999999969
11
53.1287199999999942
21
-95.3748379999999969
0
LINE
8
BLACK
6
CONTINUOUS
10
53.1287199999999942
20
-95.3748379999999969
11
52.9382439999999974
21
-95.2796000000000021
0
LINE
8
BLACK
6
CONTINUOUS
10
52.9382439999999974
20
-95.2796000000000021
11
52.8430059999999955
21
-95.1843609999999956
0
LINE
8
BLACK
6
CONTINUOUS
10
52.8430059999999955
20
-95.1843609999999956
11
52.7477680000000007
21
-94.9938849999999917
0
LINE
8
BLACK
6
CONTINUOUS
10
52.7477680000000007
20
-94.9938849999999917
11
52.6525299999999987
21
-94.6129329999999982
0
LINE
8
BLACK
6
CONTINUOUS
10
52.6525299999999987
20
-94.6129329999999982
11
52.6525299999999987
21
-94.1367419999999981
0
LINE
8
BLACK
6
CONTINUOUS
10
52.6525299999999987
20
-94.1367419999999981
11
52.7477680000000007
21
-93.7557899999999904
0
LINE
8
BLACK
6
CONTINUOUS
10
52.7477680000000007
20
-93.7557899999999904
11
52.8430059999999955
21
-93.5653140000000008
0
LINE
8
BLACK
6
CONTINUOUS
10
52.8430059999999955
20
-93.5653140000000008
11
52.9382439999999974
21
-93.4700759999999917
0
LINE
8
BLACK
6
CONTINUOUS
10
52.9382439999999974
20
-93.4700759999999917
11
53.1287199999999942
21
-93.3748379999999969
0
LINE
8
BLACK
6
CONTINUOUS
10
54.6525299999999987
20
-95.1843609999999956
11
54.7477680000000007
21
-95.2796000000000021
0
LINE
8
BLACK
6
CONTINUOUS
10
54.7477680000000007
20
-95.2796000000000021
11
54.6525299999999987
21
-95.3748379999999969
0
LINE
8
BLACK
6
CONTINUOUS
10
54.6525299999999987
20
-95.3748379999999969
11
54.5572919999999968
21
-95.2796000000000021
0
LINE
8
BLACK
6
CONTINUOUS
10
54.5572919999999968
20
-95.2796000000000021
11
54.6525299999999987
21
-95.1843609999999956
0
LINE
8
BLACK
6
CONTINUOUS
10
54.6525299999999987
20
-95.1843609999999956
11
54.6525299999999987
21
-95.3748379999999969
0
LINE
8
BLACK
6
CONTINUOUS
10
56.4620539999999949
20
-93.3748379999999969
11
56.0811009999999968
21
-93.3748379999999969
0
LINE
8
BLACK
6
CONTINUOUS
10
56.0811009999999968
20
-93.3748379999999969
11
55.890625
21
-93.4700759999999917
0
LINE
8
BLACK
6
CONTINUOUS
10
55.890625
20
-93.4700759999999917
11
55.7953869999999981
21
-93.5653140000000008
0
LINE
8
BLACK
6
CONTINUOUS
10
55.7953869999999981
20
-93.5653140000000008
11
55.6049109999999942
21
-93.8510279999999995
0
LINE
8
BLACK
6
CONTINUOUS
10
55.6049109999999942
20
-93.8510279999999995
11
55.5096729999999994
21
-94.231979999999993
0
LINE
8
BLACK
6
CONTINUOUS
10
55.5096729999999994
20
-94.231979999999993
11
55.5096729999999994
21
-94.9938849999999917
0
LINE
8
BLACK
6
CONTINUOUS
10
55.5096729999999994
20
-94.9938849999999917
11
55.6049109999999942
21
-95.1843609999999956
0
LINE
8
BLACK
6
CONTINUOUS
10
55.6049109999999942
20
-95.1843609999999956
11
55.7001489999999961
21
-95.2796000000000021
0
LINE
8
BLACK
6
CONTINUOUS
10
55.7001489999999961
20
-95.2796000000000021
11
55.890625
21
-95.3748379999999969
0
LINE
8
BLACK
6
CONTINUOUS
10
55.890625
20
-95.3748379999999969
11
56.2715779999999981
21
-95.3748379999999969
0
LINE
8
BLACK
6
CONTINUOUS
10
56.2715779999999981
20
-95.3748379999999969
11
56.4620539999999949
21
-95.2796000000000021
0
LINE
8
BLACK
6
CONTINUOUS
10
56.4620539999999949
20
-95.2796000000000021
11
56.5572919999999968
21
-95.1843609999999956
0
LINE
8
BLACK
6
CONTINUOUS
10
56.5572919999999968
20
-95.1843609999999956
11
56.6525299999999987
21
-94.9938849999999917
0
LINE
8
BLACK
6
CONTINUOUS
10
56.6525299999999987
20
-94.9938849999999917
11
56.6525299999999987
21
-94.5176949999999891
0
LINE
8
BLACK
6
CONTINUOUS
10
56.6525299999999987
20
-94.5176949999999891
11
56.5572919999999968
21
-94.3272189999999995
0
LINE
8
BLACK
6
CONTINUOUS
10
56.5572919999999968
20
-94.3272189999999995
11
56.4620539999999949
21
-94.231979999999993
0
LINE
8
BLACK
6
CONTINUOUS
10
56.4620539999999949
20
-94.231979999999993
11
56.2715779999999981
21
-94.1367419999999981
0
LINE
8
BLACK
6
CONTINUOUS
10
56.2715779999999981
20
-94.1367419999999981
11
55.890625
21
-94.1367419999999981
0
LINE
8
BLACK
6
CONTINUOUS
10
55.890625
20
-94.1367419999999981
11
55.7001489999999961
21
-94.231979999999993
0
LINE
8
BLACK
6
CONTINUOUS
10
55.7001489999999961
20
-94.231979999999993
11
55.6049109999999942
21
-94.3272189999999995
0
LINE
8
BLACK
6
CONTINUOUS
10
55.6049109999999942
20
-94.3272189999999995
11
55.5096729999999994
21
-94.5176949999999891
0
LINE
8
BLACK
6
CONTINUOUS
10
58.4620539999999949
20
-93.3748379999999969
11
57.5096729999999994
21
-93.3748379999999969
0
LINE
8
BLACK
6
CONTINUOUS
10
57.5096729999999994
20
-93.3748379999999969
11
57.4144349999999974
21
-94.3272189999999995
0
LINE
8
BLACK
6
CONTINUOUS
10
57.4144349999999974
20
-94.3272189999999995
11
57.5096729999999994
21
-94.231979999999993
0
LINE
8
BLACK
6
CONTINUOUS
10
57.5096729999999994
20
-94.231979999999993
11
57.7001489999999961
21
-94.1367419999999981
0
LINE
8
BLACK
6
CONTINUOUS
10
57.7001489999999961
20
-94.1367419999999981
11
58.1763399999999962
21
-94.1367419999999981
0
LINE
8
BLACK
6
CONTINUOUS
10
58.1763399999999962
20
-94.1367419999999981
11
58.366816
21
-94.231979999999993
0
LINE
8
BLACK
6
CONTINUOUS
10
58.366816
20
-94.231979999999993
11
58.4620539999999949
21
-94.3272189999999995
0
LINE
8
BLACK
6
CONTINUOUS
10
58.4620539999999949
20
-94.3272189999999995
11
58.5572919999999968
21
-94.5176949999999891
0
LINE
8
BLACK
6
CONTINUOUS
10
58.5572919999999968
20
-94.5176949999999891
11
58.5572919999999968
21
-94.9938849999999917
0
LINE
8
BLACK
6
CONTINUOUS
10
58.5572919999999968
20
-94.9938849999999917
11
58.4620539999999949
21
-95.1843609999999956
0
LINE
8
BLACK
6
CONTINUOUS
10
58.4620539999999949
20
-95.1843609999999956
11
58.366816
21
-95.2796000000000021
0
LINE
8
BLACK
6
CONTINUOUS
10
58.366816
20
-95.2796000000000021
11
58.1763399999999962
21
-95.3748379999999969
0
LINE
8
BLACK
6
CONTINUOUS
10
58.1763399999999962
20
-95.3748379999999969
11
57.7001489999999961
21
-95.3748379999999969
0
LINE
8
BLACK
6
CONTINUOUS
10
57.7001489999999961
20
-95.3748379999999969
11
57.5096729999999994
21
-95.2796000000000021
0
LINE
8
BLACK
6
CONTINUOUS
10
57.5096729999999994
20
-95.2796000000000021
11
57.4144349999999974
21
-95.1843609999999956
0
LINE
8
BLACK
6
CONTINUOUS
10
59.7953869999999981
20
-93.3748379999999969
11
59.9858639999999994
21
-93.3748379999999969
0
LINE
8
BLACK
6
CONTINUOUS
10
59.9858639999999994
20
-93.3748379999999969
11
60.1763399999999962
21
-93.4700759999999917
0
LINE
8
BLACK
6
CONTINUOUS
10
60.1763399999999962
20
-93.4700759999999917
11
60.2715779999999981
21
-93.5653140000000008
0
LINE
8
BLACK
6
CONTINUOUS
10
60.2715779999999981
20
-93.5653140000000008
11
60.366816
21
-93.7557899999999904
0
LINE
8
BLACK
6
CONTINUOUS
10
60.366816
20
-93.7557899999999904
11
60.4620539999999949
21
-94.1367419999999981
0
LINE
8
BLACK
6
CONTINUOUS
10
60.4620539999999949
20
-94.1367419999999981
11
60.4620539999999949
21
-94.6129329999999982
0
LINE
8
BLACK
6
CONTINUOUS
10
60.4620539999999949
20
-94.6129329999999982
11
60.366816
21
-94.9938849999999917
0
LINE
8
BLACK
6
CONTINUOUS
10
60.366816
20
-94.9938849999999917
11
60.2715779999999981
21
-95.1843609999999956
0
LINE
8
BLACK
6
CONTINUOUS
10
60.2715779999999981
20
-95.1843609999999956
11
60.1763399999999962
21
-95.2796000000000021
0
LINE
8
BLACK
6
CONTINUOUS
10
60.1763399999999962
20
-95.2796000000000021
11
59.9858639999999994
21
-95.3748379999999969
0
LINE
8
BLACK
6
CONTINUOUS
10
59.9858639999999994
20
-95.3748379999999969
11
59.7953869999999981
21
-95.3748379999999969
0
LINE
8
BLACK
6
CONTINUOUS
10
59.7953869999999981
20
-95.3748379999999969
11
59.6049109999999942
21
-95.2796000000000021
0
LINE
8
BLACK
6
CONTINUOUS
10
59.6049109999999942
20
-95.2796000000000021
11
59.5096729999999994
21
-95.1843609999999956
0
LINE
8
BLACK
6
CONTINUOUS
10
59.5096729999999994
20
-95.1843609999999956
11
59.4144349999999974
21
-94.9938849999999917
0
LINE
8
BLACK
6
CONTINUOUS
10
59.4144349999999974
20
-94.9938849999999917
11
59.3191969999999955
21
-94.6129329999999982
0
LINE
8
BLACK
6
CONTINUOUS
10
59.3191969999999955
20
-94.6129329999999982
11
59.3191969999999955
21
-94.1367419999999981
0
LINE
8
BLACK
6
CONTINUOUS
10
59.3191969999999955
20
-94.1367419999999981
11
59.4144349999999974
21
-93.7557899999999904
0
LINE
8
BLACK
6
CONTINUOUS
10
59.4144349999999974
20
-93.7557899999999904
11
59.5096729999999994
21
-93.5653140000000008
0
LINE
8
BLACK
6
CONTINUOUS
10
59.5096729999999994
20
-93.5653140000000008
11
59.6049109999999942
21
-93.4700759999999917
0
LINE
8
BLACK
6
CONTINUOUS
10
59.6049109999999942
20
-93.4700759999999917
11
59.7953869999999981
21
-93.3748379999999969
0
LINE
8
BLACK
6
CONTINUOUS
10
61.3191969999999955
20
-95.3748379999999969
11
61.3191969999999955
21
-94.0415039999999891
0
LINE
8
BLACK
6
CONTINUOUS
10
61.3191969999999955
20
-94.231979999999993
11
61.4144349999999974
21
-94.1367419999999981
0
LINE
8
BLACK
6
CONTINUOUS
10
61.4144349999999974
20
-94.1367419999999981
11
61.6049109999999942
21
-94.0415039999999891
0
LINE
8
BLACK
6
CONTINUOUS
10
61.6049109999999942
20
-94.0415039999999891
11
61.8906259999999975
21
-94.0415039999999891
0
LINE
8
BLACK
6
CONTINUOUS
10
61.8906259999999975
20
-94.0415039999999891
11
62.0811019999999942
21
-94.1367419999999981
0
LINE
8
BLACK
6
CONTINUOUS
10
62.0811019999999942
20
-94.1367419999999981
11
62.1763399999999962
21
-94.3272189999999995
0
LINE
8
BLACK
6
CONTINUOUS
10
62.1763399999999962
20
-94.3272189999999995
11
62.1763399999999962
21
-95.3748379999999969
0
LINE
8
BLACK
6
CONTINUOUS
10
62.1763399999999962
20
-94.3272189999999995
11
62.2715779999999981
21
-94.1367419999999981
0
LINE
8
BLACK
6
CONTINUOUS
10
62.2715779999999981
20
-94.1367419999999981
11
62.4620539999999949
21
-94.0415039999999891
0
LINE
8
BLACK
6
CONTINUOUS
10
62.4620539999999949
20
-94.0415039999999891
11
62.7477680000000007
21
-94.0415039999999891
0
LINE
8
BLACK
6
CONTINUOUS
10
62.7477680000000007
20
-94.0415039999999891
11
62.9382449999999949
21
-94.1367419999999981
0
LINE
8
BLACK
6
CONTINUOUS
10
62.9382449999999949
20
-94.1367419999999981
11
63.0334829999999968
21
-94.3272189999999995
0
LINE
8
BLACK
6
CONTINUOUS
10
63.0334829999999968
20
-94.3272189999999995
11
63.0334829999999968
21
-95.3748379999999969
0
LINE
8
BLACK
6
CONTINUOUS
10
63.9858639999999994
20
-95.3748379999999969
11
63.9858639999999994
21
-94.0415039999999891
0
LINE
8
BLACK
6
CONTINUOUS
10
63.9858639999999994
20
-94.231979999999993
11
64.0811020000000013
21
-94.1367419999999981
0
LINE
8
BLACK
6
CONTINUOUS
10
64.0811020000000013
20
-94.1367419999999981
11
64.271577999999991
21
-94.0415039999999891
0
LINE
8
BLACK
6
CONTINUOUS
10
64.271577999999991
20
-94.0415039999999891
11
64.5572930000000014
21
-94.0415039999999891
0
LINE
8
BLACK
6
CONTINUOUS
10
64.5572930000000014
20
-94.0415039999999891
11
64.747768999999991
21
-94.1367419999999981
0
LINE
8
BLACK
6
CONTINUOUS
10
64.747768999999991
20
-94.1367419999999981
11
64.8430070000000001
21
-94.3272189999999995
0
LINE
8
BLACK
6
CONTINUOUS
10
64.8430070000000001
20
-94.3272189999999995
11
64.8430070000000001
21
-95.3748379999999969
0
LINE
8
BLACK
6
CONTINUOUS
10
64.8430070000000001
20
-94.3272189999999995
11
64.9382449999999949
21
-94.1367419999999981
0
LINE
8
BLACK
6
CONTINUOUS
10
64.9382449999999949
20
-94.1367419999999981
11
65.1287209999999988
21
-94.0415039999999891
0
LINE
8
BLACK
6
CONTINUOUS
10
65.1287209999999988
20
-94.0415039999999891
11
65.4144349999999974
21
-94.0415039999999891
0
LINE
8
BLACK
6
CONTINUOUS
10
65.4144349999999974
20
-94.0415039999999891
11
65.6049119999999988
21
-94.1367419999999981
0
LINE
8
BLACK
6
CONTINUOUS
10
65.6049119999999988
20
-94.1367419999999981
11
65.7001499999999936
21
-94.3272189999999995
0
LINE
8
BLACK
6
CONTINUOUS
10
65.7001499999999936
20
-94.3272189999999995
11
65.7001499999999936
21
-95.3748379999999969
0
LINE
8
BLACK
6
CONTINUOUS
10
69.6049119999999988
20
-93.2796000000000021
11
67.890626999999995
21
-95.8510279999999995
0
LINE
8
BLACK
6
CONTINUOUS
10
72.1763409999999936
20
-93.3748379999999969
11
72.366817999999995
21
-93.3748379999999969
0
LINE
8
BLACK
6
CONTINUOUS
10
72.366817999999995
20
-93.3748379999999969
11
72.5572939999999988
21
-93.4700759999999917
0
LINE
8
BLACK
6
CONTINUOUS
10
72.5572939999999988
20
-93.4700759999999917
11
72.6525319999999937
21
-93.5653140000000008
0
LINE
8
BLACK
6
CONTINUOUS
10
72.6525319999999937
20
-93.5653140000000008
11
72.7477700000000027
21
-93.7557899999999904
0
LINE
8
BLACK
6
CONTINUOUS
10
72.7477700000000027
20
-93.7557899999999904
11
72.8430079999999975
21
-94.1367419999999981
0
LINE
8
BLACK
6
CONTINUOUS
10
72.8430079999999975
20
-94.1367419999999981
11
72.8430079999999975
21
-94.6129329999999982
0
LINE
8
BLACK
6
CONTINUOUS
10
72.8430079999999975
20
-94.6129329999999982
11
72.7477700000000027
21
-94.9938849999999917
0
LINE
8
BLACK
6
CONTINUOUS
10
72.7477700000000027
20
-94.9938849999999917
11
72.6525319999999937
21
-95.1843609999999956
0
LINE
8
BLACK
6
CONTINUOUS
10
72.6525319999999937
20
-95.1843609999999956
11
72.5572939999999988
21
-95.2796000000000021
0
LINE
8
BLACK
6
CONTINUOUS
10
72.5572939999999988
20
-95.2796000000000021
11
72.366817999999995
21
-95.3748379999999969
0
LINE
8
BLACK
6
CONTINUOUS
10
72.366817999999995
20
-95.3748379999999969
11
72.1763409999999936
21
-95.3748379999999969
0
LINE
8
BLACK
6
CONTINUOUS
10
72.1763409999999936
20
-95.3748379999999969
11
71.9858649999999898
21
-95.2796000000000021
0
LINE
8
BLACK
6
CONTINUOUS
10
71.9858649999999898
20
-95.2796000000000021
11
71.890626999999995
21
-95.1843609999999956
0
LINE
8
BLACK
6
CONTINUOUS
10
71.890626999999995
20
-95.1843609999999956
11
71.7953890000000001
21
-94.9938849999999917
0
LINE
8
BLACK
6
CONTINUOUS
10
71.7953890000000001
20
-94.9938849999999917
11
71.7001509999999911
21
-94.6129329999999982
0
LINE
8
BLACK
6
CONTINUOUS
10
71.7001509999999911
20
-94.6129329999999982
11
71.7001509999999911
21
-94.1367419999999981
0
LINE
8
BLACK
6
CONTINUOUS
10
71.7001509999999911
20
-94.1367419999999981
11
71.7953890000000001
21
-93.7557899999999904
0
LINE
8
BLACK
6
CONTINUOUS
10
71.7953890000000001
20
-93.7557899999999904
11
71.890626999999995
21
-93.5653140000000008
0
LINE
8
BLACK
6
CONTINUOUS
10
71.890626999999995
20
-93.5653140000000008
11
71.9858649999999898
21
-93.4700759999999917
0
LINE
8
BLACK
6
CONTINUOUS
10
71.9858649999999898
20
-93.4700759999999917
11
72.1763409999999936
21
-93.3748379999999969
0
LINE
8
BLACK
6
CONTINUOUS
10
73.7001509999999911
20
-95.1843609999999956
11
73.7953890000000001
21
-95.2796000000000021
0
LINE
8
BLACK
6
CONTINUOUS
10
73.7953890000000001
20
-95.2796000000000021
11
73.7001509999999911
21
-95.3748379999999969
0
LINE
8
BLACK
6
CONTINUOUS
10
73.7001509999999911
20
-95.3748379999999969
11
73.6049129999999963
21
-95.2796000000000021
0
LINE
8
BLACK
6
CONTINUOUS
10
73.6049129999999963
20
-95.2796000000000021
11
73.7001509999999911
21
-95.1843609999999956
0
LINE
8
BLACK
6
CONTINUOUS
10
73.7001509999999911
20
-95.1843609999999956
11
73.7001509999999911
21
-95.3748379999999969
0
LINE
8
BLACK
6
CONTINUOUS
10
75.0334840000000014
20
-93.3748379999999969
11
75.2239610000000027
21
-93.3748379999999969
0
LINE
8
BLACK
6
CONTINUOUS
10
75.2239610000000027
20
-93.3748379999999969
11
75.4144369999999924
21
-93.4700759999999917
0
LINE
8
BLACK
6
CONTINUOUS
10
75.4144369999999924
20
-93.4700759999999917
11
75.5096750000000014
21
-93.5653140000000008
0
LINE
8
BLACK
6
CONTINUOUS
10
75.5096750000000014
20
-93.5653140000000008
11
75.6049129999999963
21
-93.7557899999999904
0
LINE
8
BLACK
6
CONTINUOUS
10
75.6049129999999963
20
-93.7557899999999904
11
75.7001509999999911
21
-94.1367419999999981
0
LINE
8
BLACK
6
CONTINUOUS
10
75.7001509999999911
20
-94.1367419999999981
11
75.7001509999999911
21
-94.6129329999999982
0
LINE
8
BLACK
6
CONTINUOUS
10
75.7001509999999911
20
-94.6129329999999982
11
75.6049129999999963
21
-94.9938849999999917
0
LINE
8
BLACK
6
CONTINUOUS
10
75.6049129999999963
20
-94.9938849999999917
11
75.5096750000000014
21
-95.1843609999999956
0
LINE
8
BLACK
6
CONTINUOUS
10
75.5096750000000014
20
-95.1843609999999956
11
75.4144369999999924
21
-95.2796000000000021
0
LINE
8
BLACK
6
CONTINUOUS
10
75.4144369999999924
20
-95.2796000000000021
11
75.2239610000000027
21
-95.3748379999999969
0
LINE
8
BLACK
6
CONTINUOUS
10
75.2239610000000027
20
-95.3748379999999969
11
75.0334840000000014
21
-95.3748379999999969
0
LINE
8
BLACK
6
CONTINUOUS
10
75.0334840000000014
20
-95.3748379999999969
11
74.8430079999999975
21
-95.2796000000000021
0
LINE
8
BLACK
6
CONTINUOUS
10
74.8430079999999975
20
-95.2796000000000021
11
74.7477700000000027
21
-95.1843609999999956
0
LINE
8
BLACK
6
CONTINUOUS
10
74.7477700000000027
20
-95.1843609999999956
11
74.6525319999999937
21
-94.9938849999999917
0
LINE
8
BLACK
6
CONTINUOUS
10
74.6525319999999937
20
-94.9938849999999917
11
74.5572939999999988
21
-94.6129329999999982
0
LINE
8
BLACK
6
CONTINUOUS
10
74.5572939999999988
20
-94.6129329999999982
11
74.5572939999999988
21
-94.1367419999999981
0
LINE
8
BLACK
6
CONTINUOUS
10
74.5572939999999988
20
-94.1367419999999981
11
74.6525319999999937
21
-93.7557899999999904
0
LINE
8
BLACK
6
CONTINUOUS
10
74.6525319999999937
20
-93.7557899999999904
11
74.7477700000000027
21
-93.5653140000000008
0
LINE
8
BLACK
6
CONTINUOUS
10
74.7477700000000027
20
-93.5653140000000008
11
74.8430079999999975
21
-93.4700759999999917
0
LINE
8
BLACK
6
CONTINUOUS
10
74.8430079999999975
20
-93.4700759999999917
11
75.0334840000000014
21
-93.3748379999999969
0
LINE
8
BLACK
6
CONTINUOUS
10
76.4620559999999898
20
-93.5653140000000008
11
76.5572939999999988
21
-93.4700759999999917
0
LINE
8
BLACK
6
CONTINUOUS
10
76.5572939999999988
20
-93.4700759999999917
11
76.7477700000000027
21
-93.3748379999999969
0
LINE
8
BLACK
6
CONTINUOUS
10
76.7477700000000027
20
-93.3748379999999969
11
77.2239610000000027
21
-93.3748379999999969
0
LINE
8
BLACK
6
CONTINUOUS
10
77.2239610000000027
20
-93.3748379999999969
11
77.4144369999999924
21
-93.4700759999999917
0
LINE
8
BLACK
6
CONTINUOUS
10
77.4144369999999924
20
-93.4700759999999917
11
77.5096750000000014
21
-93.5653140000000008
0
LINE
8
BLACK
6
CONTINUOUS
10
77.5096750000000014
20
-93.5653140000000008
11
77.6049129999999963
21
-93.7557899999999904
0
LINE
8
BLACK
6
CONTINUOUS
10
77.6049129999999963
20
-93.7557899999999904
11
77.6049129999999963
21
-93.9462659999999943
0
LINE
8
BLACK
6
CONTINUOUS
10
77.6049129999999963
20
-93.9462659999999943
11
77.5096750000000014
21
-94.231979999999993
0
LINE
8
BLACK
6
CONTINUOUS
10
77.5096750000000014
20
-94.231979999999993
11
76.366817999999995
21
-95.3748379999999969
0
LINE
8
BLACK
6
CONTINUOUS
10
76.366817999999995
20
-95.3748379999999969
11
77.6049129999999963
21
-95.3748379999999969
0
LINE
8
BLACK
6
CONTINUOUS
10
79.4144369999999924
20
-93.3748379999999969
11
78.4620559999999898
21
-93.3748379999999969
0
LINE
8
BLACK
6
CONTINUOUS
10
78.4620559999999898
20
-93.3748379999999969
11
78.366817999999995
21
-94.3272189999999995
0
LINE
8
BLACK
6
CONTINUOUS
10
78.366817999999995
20
-94.3272189999999995
11
78.4620559999999898
21
-94.231979999999993
0
LINE
8
BLACK
6
CONTINUOUS
10
78.4620559999999898
20
-94.231979999999993
11
78.6525319999999937
21
-94.1367419999999981
0
LINE
8
BLACK
6
CONTINUOUS
10
78.6525319999999937
20
-94.1367419999999981
11
79.1287229999999937
21
-94.1367419999999981
0
LINE
8
BLACK
6
CONTINUOUS
10
79.1287229999999937
20
-94.1367419999999981
11
79.3191989999999976
21
-94.231979999999993
0
LINE
8
BLACK
6
CONTINUOUS
10
79.3191989999999976
20
-94.231979999999993
11
79.4144369999999924
21
-94.3272189999999995
0
LINE
8
BLACK
6
CONTINUOUS
10
79.4144369999999924
20
-94.3272189999999995
11
79.5096750000000014
21
-94.5176949999999891
0
LINE
8
BLACK
6
CONTINUOUS
10
79.5096750000000014
20
-94.5176949999999891
11
79.5096750000000014
21
-94.9938849999999917
0
LINE
8
BLACK
6
CONTINUOUS
10
79.5096750000000014
20
-94.9938849999999917
11
79.4144369999999924
21
-95.1843609999999956
0
LINE
8
BLACK
6
CONTINUOUS
10
79.4144369999999924
20
-95.1843609999999956
11
79.3191989999999976
21
-95.2796000000000021
0
LINE
8
BLACK
6
CONTINUOUS
10
79.3191989999999976
20
-95.2796000000000021
11
79.1287229999999937
21
-95.3748379999999969
0
LINE
8
BLACK
6
CONTINUOUS
10
79.1287229999999937
20
-95.3748379999999969
11
78.6525319999999937
21
-95.3748379999999969
0
LINE
8
BLACK
6
CONTINUOUS
10
78.6525319999999937
20
-95.3748379999999969
11
78.4620559999999898
21
-95.2796000000000021
0
LINE
8
BLACK
6
CONTINUOUS
10
78.4620559999999898
20
-95.2796000000000021
11
78.366817999999995
21
-95.1843609999999956
0
LINE
8
BLACK
6
CONTINUOUS
10
81.2239610000000027
20
-93.3748379999999969
11
80.8430079999999975
21
-93.3748379999999969
0
LINE
8
BLACK
6
CONTINUOUS
10
80.8430079999999975
20
-93.3748379999999969
11
80.6525319999999937
21
-93.4700759999999917
0
LINE
8
BLACK
6
CONTINUOUS
10
80.6525319999999937
20
-93.4700759999999917
11
80.5572939999999988
21
-93.5653140000000008
0
LINE
8
BLACK
6
CONTINUOUS
10
80.5572939999999988
20
-93.5653140000000008
11
80.366817999999995
21
-93.8510279999999995
0
LINE
8
BLACK
6
CONTINUOUS
10
80.366817999999995
20
-93.8510279999999995
11
80.2715800000000002
21
-94.231979999999993
0
LINE
8
BLACK
6
CONTINUOUS
10
80.2715800000000002
20
-94.231979999999993
11
80.2715800000000002
21
-94.9938849999999917
0
LINE
8
BLACK
6
CONTINUOUS
10
80.2715800000000002
20
-94.9938849999999917
11
80.366817999999995
21
-95.1843609999999956
0
LINE
8
BLACK
6
CONTINUOUS
10
80.366817999999995
20
-95.1843609999999956
11
80.4620559999999898
21
-95.2796000000000021
0
LINE
8
BLACK
6
CONTINUOUS
10
80.4620559999999898
20
-95.2796000000000021
11
80.6525319999999937
21
-95.3748379999999969
0
LINE
8
BLACK
6
CONTINUOUS
10
80.6525319999999937
20
-95.3748379999999969
11
81.0334849999999989
21
-95.3748379999999969
0
LINE
8
BLACK
6
CONTINUOUS
10
81.0334849999999989
20
-95.3748379999999969
11
81.2239610000000027
21
-95.2796000000000021
0
LINE
8
BLACK
6
CONTINUOUS
10
81.2239610000000027
20
-95.2796000000000021
11
81.3191989999999976
21
-95.1843609999999956
0
LINE
8
BLACK
6
CONTINUOUS
10
81.3191989999999976
20
-95.1843609999999956
11
81.4144369999999924
21
-94.9938849999999917
0
LINE
8
BLACK
6
CONTINUOUS
10
81.4144369999999924
20
-94.9938849999999917
11
81.4144369999999924
21
-94.5176949999999891
0
LINE
8
BLACK
6
CONTINUOUS
10
81.4144369999999924
20
-94.5176949999999891
11
81.3191989999999976
21
-94.3272189999999995
0
LINE
8
BLACK
6
CONTINUOUS
10
81.3191989999999976
20
-94.3272189999999995
11
81.2239610000000027
21
-94.231979999999993
0
LINE
8
BLACK
6
CONTINUOUS
10
81.2239610000000027
20
-94.231979999999993
11
81.0334849999999989
21
-94.1367419999999981
0
LINE
8
BLACK
6
CONTINUOUS
10
81.0334849999999989
20
-94.1367419999999981
11
80.6525319999999937
21
-94.1367419999999981
0
LINE
8
BLACK
6
CONTINUOUS
10
80.6525319999999937
20
-94.1367419999999981
11
80.4620559999999898
21
-94.231979999999993
0
LINE
8
BLACK
6
CONTINUOUS
10
80.4620559999999898
20
-94.231979999999993
11
80.366817999999995
21
-94.3272189999999995
0
LINE
8
BLACK
6
CONTINUOUS
10
80.366817999999995
20
-94.3272189999999995
11
80.2715800000000002
21
-94.5176949999999891
0
LINE
8
BLACK
6
CONTINUOUS
10
82.1763419999999911
20
-93.3748379999999969
11
82.1763419999999911
21
-93.7557899999999904
0
LINE
8
BLACK
6
CONTINUOUS
10
82.9382469999999898
20
-93.3748379999999969
11
82.9382469999999898
21
-93.7557899999999904
0
LINE
8
BLACK
6
CONTINUOUS
10
85.8906289999999899
20
-96.1367419999999981
11
85.7953899999999976
21
-96.0415039999999891
0
LINE
8
BLACK
6
CONTINUOUS
10
85.7953899999999976
20
-96.0415039999999891
11
85.6049139999999937
21
-95.7557899999999904
0
LINE
8
BLACK
6
CONTINUOUS
10
85.6049139999999937
20
-95.7557899999999904
11
85.5096759999999989
21
-95.5653140000000008
0
LINE
8
BLACK
6
CONTINUOUS
10
85.5096759999999989
20
-95.5653140000000008
11
85.4144379999999899
21
-95.2796000000000021
0
LINE
8
BLACK
6
CONTINUOUS
10
85.4144379999999899
20
-95.2796000000000021
11
85.319199999999995
21
-94.803409000000002
0
LINE
8
BLACK
6
CONTINUOUS
10
85.319199999999995
20
-94.803409000000002
11
85.319199999999995
21
-94.4224569999999943
0
LINE
8
BLACK
6
CONTINUOUS
10
85.319199999999995
20
-94.4224569999999943
11
85.4144379999999899
21
-93.9462659999999943
0
LINE
8
BLACK
6
CONTINUOUS
10
85.4144379999999899
20
-93.9462659999999943
11
85.5096759999999989
21
-93.6605519999999956
0
LINE
8
BLACK
6
CONTINUOUS
10
85.5096759999999989
20
-93.6605519999999956
11
85.6049139999999937
21
-93.4700759999999917
0
LINE
8
BLACK
6
CONTINUOUS
10
85.6049139999999937
20
-93.4700759999999917
11
85.7953899999999976
21
-93.1843609999999956
0
LINE
8
BLACK
6
CONTINUOUS
10
85.7953899999999976
20
-93.1843609999999956
11
85.8906289999999899
21
-93.0891230000000007
0
LINE
8
BLACK
6
CONTINUOUS
10
86.5572949999999963
20
-93.5653140000000008
11
86.6525329999999911
21
-93.4700759999999917
0
LINE
8
BLACK
6
CONTINUOUS
10
86.6525329999999911
20
-93.4700759999999917
11
86.843008999999995
21
-93.3748379999999969
0
LINE
8
BLACK
6
CONTINUOUS
10
86.843008999999995
20
-93.3748379999999969
11
87.319199999999995
21
-93.3748379999999969
0
LINE
8
BLACK
6
CONTINUOUS
10
87.319199999999995
20
-93.3748379999999969
11
87.5096759999999989
21
-93.4700759999999917
0
LINE
8
BLACK
6
CONTINUOUS
10
87.5096759999999989
20
-93.4700759999999917
11
87.6049139999999937
21
-93.5653140000000008
0
LINE
8
BLACK
6
CONTINUOUS
10
87.6049139999999937
20
-93.5653140000000008
11
87.7001520000000028
21
-93.7557899999999904
0
LINE
8
BLACK
6
CONTINUOUS
10
87.7001520000000028
20
-93.7557899999999904
11
87.7001520000000028
21
-93.9462659999999943
0
LINE
8
BLACK
6
CONTINUOUS
10
87.7001520000000028
20
-93.9462659999999943
11
87.6049139999999937
21
-94.231979999999993
0
LINE
8
BLACK
6
CONTINUOUS
10
87.6049139999999937
20
-94.231979999999993
11
86.4620570000000015
21
-95.3748379999999969
0
LINE
8
BLACK
6
CONTINUOUS
10
86.4620570000000015
20
-95.3748379999999969
11
87.7001520000000028
21
-95.3748379999999969
0
LINE
8
BLACK
6
CONTINUOUS
10
90.0811049999999938
20
-95.3748379999999969
11
90.0811049999999938
21
-93.3748379999999969
0
LINE
8
BLACK
6
CONTINUOUS
10
90.9382480000000015
20
-95.3748379999999969
11
90.9382480000000015
21
-94.3272189999999995
0
LINE
8
BLACK
6
CONTINUOUS
10
90.9382480000000015
20
-94.3272189999999995
11
90.8430099999999925
21
-94.1367419999999981
0
LINE
8
BLACK
6
CONTINUOUS
10
90.8430099999999925
20
-94.1367419999999981
11
90.6525340000000028
21
-94.0415039999999891
0
LINE
8
BLACK
6
CONTINUOUS
10
90.6525340000000028
20
-94.0415039999999891
11
90.3668189999999925
21
-94.0415039999999891
0
LINE
8
BLACK
6
CONTINUOUS
10
90.3668189999999925
20
-94.0415039999999891
11
90.1763430000000028
21
-94.1367419999999981
0
LINE
8
BLACK
6
CONTINUOUS
10
90.1763430000000028
20
-94.1367419999999981
11
90.0811049999999938
21
-94.231979999999993
0
LINE
8
BLACK
6
CONTINUOUS
10
92.1763430000000028
20
-95.3748379999999969
11
91.9858669999999989
21
-95.2796000000000021
0
LINE
8
BLACK
6
CONTINUOUS
10
91.9858669999999989
20
-95.2796000000000021
11
91.8906289999999899
21
-95.1843609999999956
0
LINE
8
BLACK
6
CONTINUOUS
10
91.8906289999999899
20
-95.1843609999999956
11
91.7953909999999951
21
-94.9938849999999917
0
LINE
8
BLACK
6
CONTINUOUS
10
91.7953909999999951
20
-94.9938849999999917
11
91.7953909999999951
21
-94.4224569999999943
0
LINE
8
BLACK
6
CONTINUOUS
10
91.7953909999999951
20
-94.4224569999999943
11
91.8906289999999899
21
-94.231979999999993
0
LINE
8
BLACK
6
CONTINUOUS
10
91.8906289999999899
20
-94.231979999999993
11
91.9858669999999989
21
-94.1367419999999981
0
LINE
8
BLACK
6
CONTINUOUS
10
91.9858669999999989
20
-94.1367419999999981
11
92.1763430000000028
21
-94.0415039999999891
0
LINE
8
BLACK
6
CONTINUOUS
10
92.1763430000000028
20
-94.0415039999999891
11
92.462057999999999
21
-94.0415039999999891
0
LINE
8
BLACK
6
CONTINUOUS
10
92.462057999999999
20
-94.0415039999999891
11
92.6525340000000028
21
-94.1367419999999981
0
LINE
8
BLACK
6
CONTINUOUS
10
92.6525340000000028
20
-94.1367419999999981
11
92.7477719999999977
21
-94.231979999999993
0
LINE
8
BLACK
6
CONTINUOUS
10
92.7477719999999977
20
-94.231979999999993
11
92.8430099999999925
21
-94.4224569999999943
0
LINE
8
BLACK
6
CONTINUOUS
10
92.8430099999999925
20
-94.4224569999999943
11
92.8430099999999925
21
-94.9938849999999917
0
LINE
8
BLACK
6
CONTINUOUS
10
92.8430099999999925
20
-94.9938849999999917
11
92.7477719999999977
21
-95.1843609999999956
0
LINE
8
BLACK
6
CONTINUOUS
10
92.7477719999999977
20
-95.1843609999999956
11
92.6525340000000028
21
-95.2796000000000021
0
LINE
8
BLACK
6
CONTINUOUS
10
92.6525340000000028
20
-95.2796000000000021
11
92.462057999999999
21
-95.3748379999999969
0
LINE
8
BLACK
6
CONTINUOUS
10
92.462057999999999
20
-95.3748379999999969
11
92.1763430000000028
21
-95.3748379999999969
0
LINE
8
BLACK
6
CONTINUOUS
10
93.9858669999999989
20
-95.3748379999999969
11
93.7953909999999951
21
-95.2796000000000021
0
LINE
8
BLACK
6
CONTINUOUS
10
93.7953909999999951
20
-95.2796000000000021
11
93.7001530000000002
21
-95.0891230000000007
0
LINE
8
BLACK
6
CONTINUOUS
10
93.7001530000000002
20
-95.0891230000000007
11
93.7001530000000002
21
-93.3748379999999969
0
LINE
8
BLACK
6
CONTINUOUS
10
95.5096769999999964
20
-95.2796000000000021
11
95.3192009999999925
21
-95.3748379999999969
0
LINE
8
BLACK
6
CONTINUOUS
10
95.3192009999999925
20
-95.3748379999999969
11
94.9382480000000015
21
-95.3748379999999969
0
LINE
8
BLACK
6
CONTINUOUS
10
94.9382480000000015
20
-95.3748379999999969
11
94.7477719999999977
21
-95.2796000000000021
0
LINE
8
BLACK
6
CONTINUOUS
10
94.7477719999999977
20
-95.2796000000000021
11
94.6525339999999886
21
-95.0891230000000007
0
LINE
8
BLACK
6
CONTINUOUS
10
94.6525339999999886
20
-95.0891230000000007
11
94.6525339999999886
21
-94.3272189999999995
0
LINE
8
BLACK
6
CONTINUOUS
10
94.6525339999999886
20
-94.3272189999999995
11
94.7477719999999977
21
-94.1367419999999981
0
LINE
8
BLACK
6
CONTINUOUS
10
94.7477719999999977
20
-94.1367419999999981
11
94.9382480000000015
21
-94.0415039999999891
0
LINE
8
BLACK
6
CONTINUOUS
10
94.9382480000000015
20
-94.0415039999999891
11
95.3192009999999925
21
-94.0415039999999891
0
LINE
8
BLACK
6
CONTINUOUS
10
95.3192009999999925
20
-94.0415039999999891
11
95.5096769999999964
21
-94.1367419999999981
0
LINE
8
BLACK
6
CONTINUOUS
10
95.5096769999999964
20
-94.1367419999999981
11
95.6049149999999912
21
-94.3272189999999995
0
LINE
8
BLACK
6
CONTINUOUS
10
95.6049149999999912
20
-94.3272189999999995
11
95.6049149999999912
21
-94.5176949999999891
0
LINE
8
BLACK
6
CONTINUOUS
10
95.6049149999999912
20
-94.5176949999999891
11
94.6525339999999886
21
-94.708170999999993
0
LINE
8
BLACK
6
CONTINUOUS
10
96.3668199999999899
20
-95.2796000000000021
11
96.5572959999999938
21
-95.3748379999999969
0
LINE
8
BLACK
6
CONTINUOUS
10
96.5572959999999938
20
-95.3748379999999969
11
96.9382480000000015
21
-95.3748379999999969
0
LINE
8
BLACK
6
CONTINUOUS
10
96.9382480000000015
20
-95.3748379999999969
11
97.1287249999999887
21
-95.2796000000000021
0
LINE
8
BLACK
6
CONTINUOUS
10
97.1287249999999887
20
-95.2796000000000021
11
97.2239629999999977
21
-95.0891230000000007
0
LINE
8
BLACK
6
CONTINUOUS
10
97.2239629999999977
20
-95.0891230000000007
11
97.2239629999999977
21
-94.9938849999999917
0
LINE
8
BLACK
6
CONTINUOUS
10
97.2239629999999977
20
-94.9938849999999917
11
97.1287249999999887
21
-94.803409000000002
0
LINE
8
BLACK
6
CONTINUOUS
10
97.1287249999999887
20
-94.803409000000002
11
96.9382480000000015
21
-94.708170999999993
0
LINE
8
BLACK
6
CONTINUOUS
10
96.9382480000000015
20
-94.708170999999993
11
96.6525339999999886
21
-94.708170999999993
0
LINE
8
BLACK
6
CONTINUOUS
10
96.6525339999999886
20
-94.708170999999993
11
96.462057999999999
21
-94.6129329999999982
0
LINE
8
BLACK
6
CONTINUOUS
10
96.462057999999999
20
-94.6129329999999982
11
96.3668199999999899
21
-94.4224569999999943
0
LINE
8
BLACK
6
CONTINUOUS
10
96.3668199999999899
20
-94.4224569999999943
11
96.3668199999999899
21
-94.3272189999999995
0
LINE
8
BLACK
6
CONTINUOUS
10
96.3668199999999899
20
-94.3272189999999995
11
96.462057999999999
21
-94.1367419999999981
0
LINE
8
BLACK
6
CONTINUOUS
10
96.462057999999999
20
-94.1367419999999981
11
96.6525339999999886
21
-94.0415039999999891
0
LINE
8
BLACK
6
CONTINUOUS
10
96.6525339999999886
20
-94.0415039999999891
11
96.9382480000000015
21
-94.0415039999999891
0
LINE
8
BLACK
6
CONTINUOUS
10
96.9382480000000015
20
-94.0415039999999891
11
97.1287249999999887
21
-94.1367419999999981
0
LINE
8
BLACK
6
CONTINUOUS
10
97.8906300000000016
20
-96.1367419999999981
11
97.9858679999999964
21
-96.0415039999999891
0
LINE
8
BLACK
6
CONTINUOUS
10
97.9858679999999964
20
-96.0415039999999891
11
98.1763440000000003
21
-95.7557899999999904
0
LINE
8
BLACK
6
CONTINUOUS
10
98.1763440000000003
20
-95.7557899999999904
11
98.2715819999999951
21
-95.5653140000000008
0
LINE
8
BLACK
6
CONTINUOUS
10
98.2715819999999951
20
-95.5653140000000008
11
98.3668199999999899
21
-95.2796000000000021
0
LINE
8
BLACK
6
CONTINUOUS
10
98.3668199999999899
20
-95.2796000000000021
11
98.462057999999999
21
-94.803409000000002
0
LINE
8
BLACK
6
CONTINUOUS
10
98.462057999999999
20
-94.803409000000002
11
98.462057999999999
21
-94.4224569999999943
0
LINE
8
BLACK
6
CONTINUOUS
10
98.462057999999999
20
-94.4224569999999943
11
98.3668199999999899
21
-93.9462659999999943
0
LINE
8
BLACK
6
CONTINUOUS
10
98.3668199999999899
20
-93.9462659999999943
11
98.2715819999999951
21
-93.6605519999999956
0
LINE
8
BLACK
6
CONTINUOUS
10
98.2715819999999951
20
-93.6605519999999956
11
98.1763440000000003
21
-93.4700759999999917
0
LINE
8
BLACK
6
CONTINUOUS
10
98.1763440000000003
20
-93.4700759999999917
11
97.9858679999999964
21
-93.1843609999999956
0
LINE
8
BLACK
6
CONTINUOUS
10
97.9858679999999964
20
-93.1843609999999956
11
97.8906300000000016
21
-93.0891230000000007
0
LINE
8
BLACK
6
CONTINUOUS
10
101.5096779999999939
20
-96.1367419999999981
11
101.4144390000000016
21
-96.0415039999999891
0
LINE
8
BLACK
6
CONTINUOUS
10
101.4144390000000016
20
-96.0415039999999891
11
101.2239629999999977
21
-95.7557899999999904
0
LINE
8
BLACK
6
CONTINUOUS
10
101.2239629999999977
20
-95.7557899999999904
11
101.1287249999999887
21
-95.5653140000000008
0
LINE
8
BLACK
6
CONTINUOUS
10
101.1287249999999887
20
-95.5653140000000008
11
101.0334869999999938
21
-95.2796000000000021
0
LINE
8
BLACK
6
CONTINUOUS
10
101.0334869999999938
20
-95.2796000000000021
11
100.938248999999999
21
-94.803409000000002
0
LINE
8
BLACK
6
CONTINUOUS
10
100.938248999999999
20
-94.803409000000002
11
100.938248999999999
21
-94.4224569999999943
0
LINE
8
BLACK
6
CONTINUOUS
10
100.938248999999999
20
-94.4224569999999943
11
101.0334869999999938
21
-93.9462659999999943
0
LINE
8
BLACK
6
CONTINUOUS
10
101.0334869999999938
20
-93.9462659999999943
11
101.1287249999999887
21
-93.6605519999999956
0
LINE
8
BLACK
6
CONTINUOUS
10
101.1287249999999887
20
-93.6605519999999956
11
101.2239629999999977
21
-93.4700759999999917
0
LINE
8
BLACK
6
CONTINUOUS
10
101.2239629999999977
20
-93.4700759999999917
11
101.4144390000000016
21
-93.1843609999999956
0
LINE
8
BLACK
6
CONTINUOUS
10
101.4144390000000016
20
-93.1843609999999956
11
101.5096779999999939
21
-93.0891230000000007
0
LINE
8
BLACK
6
CONTINUOUS
10
102.2715819999999951
20
-94.0415039999999891
11
102.2715819999999951
21
-95.3748379999999969
0
LINE
8
BLACK
6
CONTINUOUS
10
102.2715819999999951
20
-94.231979999999993
11
102.3668199999999899
21
-94.1367419999999981
0
LINE
8
BLACK
6
CONTINUOUS
10
102.3668199999999899
20
-94.1367419999999981
11
102.5572959999999938
21
-94.0415039999999891
0
LINE
8
BLACK
6
CONTINUOUS
10
102.5572959999999938
20
-94.0415039999999891
11
102.84301099999999
21
-94.0415039999999891
0
LINE
8
BLACK
6
CONTINUOUS
10
102.84301099999999
20
-94.0415039999999891
11
103.0334869999999938
21
-94.1367419999999981
0
LINE
8
BLACK
6
CONTINUOUS
10
103.0334869999999938
20
-94.1367419999999981
11
103.1287249999999887
21
-94.3272189999999995
0
LINE
8
BLACK
6
CONTINUOUS
10
103.1287249999999887
20
-94.3272189999999995
11
103.1287249999999887
21
-95.3748379999999969
0
LINE
8
BLACK
6
CONTINUOUS
10
104.3668199999999899
20
-95.3748379999999969
11
104.1763440000000003
21
-95.2796000000000021
0
LINE
8
BLACK
6
CONTINUOUS
10
104.1763440000000003
20
-95.2796000000000021
11
104.0811059999999912
21
-95.1843609999999956
0
LINE
8
BLACK
6
CONTINUOUS
10
104.0811059999999912
20
-95.1843609999999956
11
103.9858679999999964
21
-94.9938849999999917
0
LINE
8
BLACK
6
CONTINUOUS
10
103.9858679999999964
20
-94.9938849999999917
11
103.9858679999999964
21
-94.4224569999999943
0
LINE
8
BLACK
6
CONTINUOUS
10
103.9858679999999964
20
-94.4224569999999943
11
104.0811059999999912
21
-94.231979999999993
0
LINE
8
BLACK
6
CONTINUOUS
10
104.0811059999999912
20
-94.231979999999993
11
104.1763440000000003
21
-94.1367419999999981
0
LINE
8
BLACK
6
CONTINUOUS
10
104.1763440000000003
20
-94.1367419999999981
11
104.3668199999999899
21
-94.0415039999999891
0
LINE
8
BLACK
6
CONTINUOUS
10
104.3668199999999899
20
-94.0415039999999891
11
104.6525350000000003
21
-94.0415039999999891
0
LINE
8
BLACK
6
CONTINUOUS
10
104.6525350000000003
20
-94.0415039999999891
11
104.84301099999999
21
-94.1367419999999981
0
LINE
8
BLACK
6
CONTINUOUS
10
104.84301099999999
20
-94.1367419999999981
11
104.938248999999999
21
-94.231979999999993
0
LINE
8
BLACK
6
CONTINUOUS
10
104.938248999999999
20
-94.231979999999993
11
105.0334869999999938
21
-94.4224569999999943
0
LINE
8
BLACK
6
CONTINUOUS
10
105.0334869999999938
20
-94.4224569999999943
11
105.0334869999999938
21
-94.9938849999999917
0
LINE
8
BLACK
6
CONTINUOUS
10
105.0334869999999938
20
-94.9938849999999917
11
104.938248999999999
21
-95.1843609999999956
0
LINE
8
BLACK
6
CONTINUOUS
10
104.938248999999999
20
-95.1843609999999956
11
104.84301099999999
21
-95.2796000000000021
0
LINE
8
BLACK
6
CONTINUOUS
10
104.84301099999999
20
-95.2796000000000021
11
104.6525350000000003
21
-95.3748379999999969
0
LINE
8
BLACK
6
CONTINUOUS
10
104.6525350000000003
20
-95.3748379999999969
11
104.3668199999999899
21
-95.3748379999999969
0
LINE
8
BLACK
6
CONTINUOUS
10
105.6049159999999887
20
-94.0415039999999891
11
106.3668199999999899
21
-94.0415039999999891
0
LINE
8
BLACK
6
CONTINUOUS
10
105.8906300000000016
20
-93.3748379999999969
11
105.8906300000000016
21
-95.0891230000000007
0
LINE
8
BLACK
6
CONTINUOUS
10
105.8906300000000016
20
-95.0891230000000007
11
105.9858679999999964
21
-95.2796000000000021
0
LINE
8
BLACK
6
CONTINUOUS
10
105.9858679999999964
20
-95.2796000000000021
11
106.1763440000000003
21
-95.3748379999999969
0
LINE
8
BLACK
6
CONTINUOUS
10
106.1763440000000003
20
-95.3748379999999969
11
106.3668199999999899
21
-95.3748379999999969
0
LINE
8
BLACK
6
CONTINUOUS
10
108.5572969999999913
20
-94.0415039999999891
11
108.5572969999999913
21
-96.0415039999999891
0
LINE
8
BLACK
6
CONTINUOUS
10
108.5572969999999913
20
-94.1367419999999981
11
108.7477729999999951
21
-94.0415039999999891
0
LINE
8
BLACK
6
CONTINUOUS
10
108.7477729999999951
20
-94.0415039999999891
11
109.1287260000000003
21
-94.0415039999999891
0
LINE
8
BLACK
6
CONTINUOUS
10
109.1287260000000003
20
-94.0415039999999891
11
109.31920199999999
21
-94.1367419999999981
0
LINE
8
BLACK
6
CONTINUOUS
10
109.31920199999999
20
-94.1367419999999981
11
109.414439999999999
21
-94.231979999999993
0
LINE
8
BLACK
6
CONTINUOUS
10
109.414439999999999
20
-94.231979999999993
11
109.5096779999999939
21
-94.4224569999999943
0
LINE
8
BLACK
6
CONTINUOUS
10
109.5096779999999939
20
-94.4224569999999943
11
109.5096779999999939
21
-94.9938849999999917
0
LINE
8
BLACK
6
CONTINUOUS
10
109.5096779999999939
20
-94.9938849999999917
11
109.414439999999999
21
-95.1843609999999956
0
LINE
8
BLACK
6
CONTINUOUS
10
109.414439999999999
20
-95.1843609999999956
11
109.31920199999999
21
-95.2796000000000021
0
LINE
8
BLACK
6
CONTINUOUS
10
109.31920199999999
20
-95.2796000000000021
11
109.1287260000000003
21
-95.3748379999999969
0
LINE
8
BLACK
6
CONTINUOUS
10
109.1287260000000003
20
-95.3748379999999969
11
108.7477729999999951
21
-95.3748379999999969
0
LINE
8
BLACK
6
CONTINUOUS
10
108.7477729999999951
20
-95.3748379999999969
11
108.5572969999999913
21
-95.2796000000000021
0
LINE
8
BLACK
6
CONTINUOUS
10
110.6525350000000003
20
-95.3748379999999969
11
110.4620589999999964
21
-95.2796000000000021
0
LINE
8
BLACK
6
CONTINUOUS
10
110.4620589999999964
20
-95.2796000000000021
11
110.3668210000000016
21
-95.0891230000000007
0
LINE
8
BLACK
6
CONTINUOUS
10
110.3668210000000016
20
-95.0891230000000007
11
110.3668210000000016
21
-93.3748379999999969
0
LINE
8
BLACK
6
CONTINUOUS
10
112.2715829999999926
20
-95.3748379999999969
11
112.2715829999999926
21
-94.3272189999999995
0
LINE
8
BLACK
6
CONTINUOUS
10
112.2715829999999926
20
-94.3272189999999995
11
112.1763449999999978
21
-94.1367419999999981
0
LINE
8
BLACK
6
CONTINUOUS
10
112.1763449999999978
20
-94.1367419999999981
11
111.9858689999999939
21
-94.0415039999999891
0
LINE
8
BLACK
6
CONTINUOUS
10
111.9858689999999939
20
-94.0415039999999891
11
111.6049159999999887
21
-94.0415039999999891
0
LINE
8
BLACK
6
CONTINUOUS
10
111.6049159999999887
20
-94.0415039999999891
11
111.414439999999999
21
-94.1367419999999981
0
LINE
8
BLACK
6
CONTINUOUS
10
112.2715829999999926
20
-95.2796000000000021
11
112.0811069999999887
21
-95.3748379999999969
0
LINE
8
BLACK
6
CONTINUOUS
10
112.0811069999999887
20
-95.3748379999999969
11
111.6049159999999887
21
-95.3748379999999969
0
LINE
8
BLACK
6
CONTINUOUS
10
111.6049159999999887
20
-95.3748379999999969
11
111.414439999999999
21
-95.2796000000000021
0
LINE
8
BLACK
6
CONTINUOUS
10
111.414439999999999
20
-95.2796000000000021
11
111.31920199999999
21
-95.0891230000000007
0
LINE
8
BLACK
6
CONTINUOUS
10
111.31920199999999
20
-95.0891230000000007
11
111.31920199999999
21
-94.8986469999999969
0
LINE
8
BLACK
6
CONTINUOUS
10
111.31920199999999
20
-94.8986469999999969
11
111.414439999999999
21
-94.708170999999993
0
LINE
8
BLACK
6
CONTINUOUS
10
111.414439999999999
20
-94.708170999999993
11
111.6049159999999887
21
-94.6129329999999982
0
LINE
8
BLACK
6
CONTINUOUS
10
111.6049159999999887
20
-94.6129329999999982
11
112.0811069999999887
21
-94.6129329999999982
0
LINE
8
BLACK
6
CONTINUOUS
10
112.0811069999999887
20
-94.6129329999999982
11
112.2715829999999926
21
-94.5176949999999891
0
LINE
8
BLACK
6
CONTINUOUS
10
112.9382499999999965
20
-94.0415039999999891
11
113.7001539999999977
21
-94.0415039999999891
0
LINE
8
BLACK
6
CONTINUOUS
10
113.2239639999999952
20
-93.3748379999999969
11
113.2239639999999952
21
-95.0891230000000007
0
LINE
8
BLACK
6
CONTINUOUS
10
113.2239639999999952
20
-95.0891230000000007
11
113.31920199999999
21
-95.2796000000000021
0
LINE
8
BLACK
6
CONTINUOUS
10
113.31920199999999
20
-95.2796000000000021
11
113.5096779999999939
21
-95.3748379999999969
0
LINE
8
BLACK
6
CONTINUOUS
10
113.5096779999999939
20
-95.3748379999999969
11
113.7001539999999977
21
-95.3748379999999969
0
LINE
8
BLACK
6
CONTINUOUS
10
115.1287260000000003
20
-95.2796000000000021
11
114.9382499999999965
21
-95.3748379999999969
0
LINE
8
BLACK
6
CONTINUOUS
10
114.9382499999999965
20
-95.3748379999999969
11
114.5572969999999913
21
-95.3748379999999969
0
LINE
8
BLACK
6
CONTINUOUS
10
114.5572969999999913
20
-95.3748379999999969
11
114.3668210000000016
21
-95.2796000000000021
0
LINE
8
BLACK
6
CONTINUOUS
10
114.3668210000000016
20
-95.2796000000000021
11
114.2715829999999926
21
-95.0891230000000007
0
LINE
8
BLACK
6
CONTINUOUS
10
114.2715829999999926
20
-95.0891230000000007
11
114.2715829999999926
21
-94.3272189999999995
0
LINE
8
BLACK
6
CONTINUOUS
10
114.2715829999999926
20
-94.3272189999999995
11
114.3668210000000016
21
-94.1367419999999981
0
LINE
8
BLACK
6
CONTINUOUS
10
114.3668210000000016
20
-94.1367419999999981
11
114.5572969999999913
21
-94.0415039999999891
0
LINE
8
BLACK
6
CONTINUOUS
10
114.5572969999999913
20
-94.0415039999999891
11
114.9382499999999965
21
-94.0415039999999891
0
LINE
8
BLACK
6
CONTINUOUS
10
114.9382499999999965
20
-94.0415039999999891
11
115.1287260000000003
21
-94.1367419999999981
0
LINE
8
BLACK
6
CONTINUOUS
10
115.1287260000000003
20
-94.1367419999999981
11
115.2239639999999952
21
-94.3272189999999995
0
LINE
8
BLACK
6
CONTINUOUS
10
115.2239639999999952
20
-94.3272189999999995
11
115.2239639999999952
21
-94.5176949999999891
0
LINE
8
BLACK
6
CONTINUOUS
10
115.2239639999999952
20
-94.5176949999999891
11
114.2715829999999926
21
-94.708170999999993
0
LINE
8
BLACK
6
CONTINUOUS
10
116.9382499999999965
20
-95.3748379999999969
11
116.9382499999999965
21
-93.3748379999999969
0
LINE
8
BLACK
6
CONTINUOUS
10
116.9382499999999965
20
-95.2796000000000021
11
116.7477739999999926
21
-95.3748379999999969
0
LINE
8
BLACK
6
CONTINUOUS
10
116.7477739999999926
20
-95.3748379999999969
11
116.3668210000000016
21
-95.3748379999999969
0
LINE
8
BLACK
6
CONTINUOUS
10
116.3668210000000016
20
-95.3748379999999969
11
116.1763449999999978
21
-95.2796000000000021
0
LINE
8
BLACK
6
CONTINUOUS
10
116.1763449999999978
20
-95.2796000000000021
11
116.0811069999999887
21
-95.1843609999999956
0
LINE
8
BLACK
6
CONTINUOUS
10
116.0811069999999887
20
-95.1843609999999956
11
115.9858689999999939
21
-94.9938849999999917
0
LINE
8
BLACK
6
CONTINUOUS
10
115.9858689999999939
20
-94.9938849999999917
11
115.9858689999999939
21
-94.4224569999999943
0
LINE
8
BLACK
6
CONTINUOUS
10
115.9858689999999939
20
-94.4224569999999943
11
116.0811069999999887
21
-94.231979999999993
0
LINE
8
BLACK
6
CONTINUOUS
10
116.0811069999999887
20
-94.231979999999993
11
116.1763449999999978
21
-94.1367419999999981
0
LINE
8
BLACK
6
CONTINUOUS
10
116.1763449999999978
20
-94.1367419999999981
11
116.3668210000000016
21
-94.0415039999999891
0
LINE
8
BLACK
6
CONTINUOUS
10
116.3668210000000016
20
-94.0415039999999891
11
116.7477739999999926
21
-94.0415039999999891
0
LINE
8
BLACK
6
CONTINUOUS
10
116.7477739999999926
20
-94.0415039999999891
11
116.9382499999999965
21
-94.1367419999999981
0
LINE
8
BLACK
6
CONTINUOUS
10
117.7001549999999952
20
-96.1367419999999981
11
117.79539299999999
21
-96.0415039999999891
0
LINE
8
BLACK
6
CONTINUOUS
10
117.79539299999999
20
-96.0415039999999891
11
117.9858689999999939
21
-95.7557899999999904
0
LINE
8
BLACK
6
CONTINUOUS
10
117.9858689999999939
20
-95.7557899999999904
11
118.0811069999999887
21
-95.5653140000000008
0
LINE
8
BLACK
6
CONTINUOUS
10
118.0811069999999887
20
-95.5653140000000008
11
118.1763449999999978
21
-95.2796000000000021
0
LINE
8
BLACK
6
CONTINUOUS
10
118.1763449999999978
20
-95.2796000000000021
11
118.2715829999999926
21
-94.803409000000002
0
LINE
8
BLACK
6
CONTINUOUS
10
118.2715829999999926
20
-94.803409000000002
11
118.2715829999999926
21
-94.4224569999999943
0
LINE
8
BLACK
6
CONTINUOUS
10
118.2715829999999926
20
-94.4224569999999943
11
118.1763449999999978
21
-93.9462659999999943
0
LINE
8
BLACK
6
CONTINUOUS
10
118.1763449999999978
20
-93.9462659999999943
11
118.0811069999999887
21
-93.6605519999999956
0
LINE
8
BLACK
6
CONTINUOUS
10
118.0811069999999887
20
-93.6605519999999956
11
117.9858689999999939
21
-93.4700759999999917
0
LINE
8
BLACK
6
CONTINUOUS
10
117.9858689999999939
20
-93.4700759999999917
11
117.79539299999999
21
-93.1843609999999956
0
LINE
8
BLACK
6
CONTINUOUS
10
117.79539299999999
20
-93.1843609999999956
11
117.7001549999999952
21
-93.0891230000000007
  0
ENDSEC
  0
EOF
