%TF.GenerationSoftware,KiCad,Pcbnew,8.0.2*%
%TF.CreationDate,2025-03-31T12:19:47-07:00*%
%TF.ProjectId,ChipigniteExplain,43686970-6967-46e6-9974-654578706c61,1.1*%
%TF.SameCoordinates,Original*%
%TF.FileFunction,Drillmap*%
%TF.FilePolarity,Positive*%
%FSLAX45Y45*%
G04 Gerber Fmt 4.5, Leading zero omitted, Abs format (unit mm)*
G04 Created by KiCad (PCBNEW 8.0.2) date 2025-03-31 12:19:47*
%MOMM*%
%LPD*%
G01*
G04 APERTURE LIST*
%ADD10C,0.120000*%
%ADD11C,0.200000*%
%ADD12C,0.100000*%
G04 APERTURE END LIST*
D10*
X10370000Y-8500000D02*
G75*
G02*
X10070000Y-8800000I-300000J0D01*
G01*
X5020000Y-8500000D02*
X5020000Y-2550000D01*
X10070000Y-8800000D02*
X5320000Y-8800000D01*
X10370000Y-2550000D02*
X10370000Y-8500000D01*
X5020000Y-2550000D02*
G75*
G02*
X5320000Y-2250000I300000J0D01*
G01*
X5320000Y-2250000D02*
X10070000Y-2250000D01*
X10070000Y-2250000D02*
G75*
G02*
X10370000Y-2550000I0J-300000D01*
G01*
X5320000Y-8800000D02*
G75*
G02*
X5020000Y-8500000I0J300000D01*
G01*
D11*
D12*
X8398500Y-2777500D02*
X8463500Y-2842500D01*
X8463500Y-2777500D02*
X8398500Y-2842500D01*
X8976500Y-2777500D02*
X9041500Y-2842500D01*
X9041500Y-2777500D02*
X8976500Y-2842500D01*
D11*
X5274777Y-9117484D02*
X5274777Y-8917484D01*
X5274777Y-8917484D02*
X5322396Y-8917484D01*
X5322396Y-8917484D02*
X5350967Y-8927008D01*
X5350967Y-8927008D02*
X5370015Y-8946055D01*
X5370015Y-8946055D02*
X5379539Y-8965103D01*
X5379539Y-8965103D02*
X5389063Y-9003198D01*
X5389063Y-9003198D02*
X5389063Y-9031770D01*
X5389063Y-9031770D02*
X5379539Y-9069865D01*
X5379539Y-9069865D02*
X5370015Y-9088912D01*
X5370015Y-9088912D02*
X5350967Y-9107960D01*
X5350967Y-9107960D02*
X5322396Y-9117484D01*
X5322396Y-9117484D02*
X5274777Y-9117484D01*
X5474777Y-9117484D02*
X5474777Y-8984150D01*
X5474777Y-9022246D02*
X5484301Y-9003198D01*
X5484301Y-9003198D02*
X5493824Y-8993674D01*
X5493824Y-8993674D02*
X5512872Y-8984150D01*
X5512872Y-8984150D02*
X5531920Y-8984150D01*
X5598586Y-9117484D02*
X5598586Y-8984150D01*
X5598586Y-8917484D02*
X5589063Y-8927008D01*
X5589063Y-8927008D02*
X5598586Y-8936531D01*
X5598586Y-8936531D02*
X5608110Y-8927008D01*
X5608110Y-8927008D02*
X5598586Y-8917484D01*
X5598586Y-8917484D02*
X5598586Y-8936531D01*
X5722396Y-9117484D02*
X5703348Y-9107960D01*
X5703348Y-9107960D02*
X5693824Y-9088912D01*
X5693824Y-9088912D02*
X5693824Y-8917484D01*
X5827158Y-9117484D02*
X5808110Y-9107960D01*
X5808110Y-9107960D02*
X5798586Y-9088912D01*
X5798586Y-9088912D02*
X5798586Y-8917484D01*
X6055729Y-9117484D02*
X6055729Y-8917484D01*
X6055729Y-8917484D02*
X6122396Y-9060341D01*
X6122396Y-9060341D02*
X6189062Y-8917484D01*
X6189062Y-8917484D02*
X6189062Y-9117484D01*
X6370015Y-9117484D02*
X6370015Y-9012722D01*
X6370015Y-9012722D02*
X6360491Y-8993674D01*
X6360491Y-8993674D02*
X6341443Y-8984150D01*
X6341443Y-8984150D02*
X6303348Y-8984150D01*
X6303348Y-8984150D02*
X6284301Y-8993674D01*
X6370015Y-9107960D02*
X6350967Y-9117484D01*
X6350967Y-9117484D02*
X6303348Y-9117484D01*
X6303348Y-9117484D02*
X6284301Y-9107960D01*
X6284301Y-9107960D02*
X6274777Y-9088912D01*
X6274777Y-9088912D02*
X6274777Y-9069865D01*
X6274777Y-9069865D02*
X6284301Y-9050817D01*
X6284301Y-9050817D02*
X6303348Y-9041293D01*
X6303348Y-9041293D02*
X6350967Y-9041293D01*
X6350967Y-9041293D02*
X6370015Y-9031770D01*
X6465253Y-8984150D02*
X6465253Y-9184150D01*
X6465253Y-8993674D02*
X6484301Y-8984150D01*
X6484301Y-8984150D02*
X6522396Y-8984150D01*
X6522396Y-8984150D02*
X6541443Y-8993674D01*
X6541443Y-8993674D02*
X6550967Y-9003198D01*
X6550967Y-9003198D02*
X6560491Y-9022246D01*
X6560491Y-9022246D02*
X6560491Y-9079389D01*
X6560491Y-9079389D02*
X6550967Y-9098436D01*
X6550967Y-9098436D02*
X6541443Y-9107960D01*
X6541443Y-9107960D02*
X6522396Y-9117484D01*
X6522396Y-9117484D02*
X6484301Y-9117484D01*
X6484301Y-9117484D02*
X6465253Y-9107960D01*
X6646205Y-9098436D02*
X6655729Y-9107960D01*
X6655729Y-9107960D02*
X6646205Y-9117484D01*
X6646205Y-9117484D02*
X6636682Y-9107960D01*
X6636682Y-9107960D02*
X6646205Y-9098436D01*
X6646205Y-9098436D02*
X6646205Y-9117484D01*
X6646205Y-8993674D02*
X6655729Y-9003198D01*
X6655729Y-9003198D02*
X6646205Y-9012722D01*
X6646205Y-9012722D02*
X6636682Y-9003198D01*
X6636682Y-9003198D02*
X6646205Y-8993674D01*
X6646205Y-8993674D02*
X6646205Y-9012722D01*
D12*
X4949000Y-9413500D02*
X5014000Y-9478500D01*
X5014000Y-9413500D02*
X4949000Y-9478500D01*
D11*
X5312872Y-9337484D02*
X5331920Y-9337484D01*
X5331920Y-9337484D02*
X5350967Y-9347008D01*
X5350967Y-9347008D02*
X5360491Y-9356531D01*
X5360491Y-9356531D02*
X5370015Y-9375579D01*
X5370015Y-9375579D02*
X5379539Y-9413674D01*
X5379539Y-9413674D02*
X5379539Y-9461293D01*
X5379539Y-9461293D02*
X5370015Y-9499389D01*
X5370015Y-9499389D02*
X5360491Y-9518436D01*
X5360491Y-9518436D02*
X5350967Y-9527960D01*
X5350967Y-9527960D02*
X5331920Y-9537484D01*
X5331920Y-9537484D02*
X5312872Y-9537484D01*
X5312872Y-9537484D02*
X5293824Y-9527960D01*
X5293824Y-9527960D02*
X5284301Y-9518436D01*
X5284301Y-9518436D02*
X5274777Y-9499389D01*
X5274777Y-9499389D02*
X5265253Y-9461293D01*
X5265253Y-9461293D02*
X5265253Y-9413674D01*
X5265253Y-9413674D02*
X5274777Y-9375579D01*
X5274777Y-9375579D02*
X5284301Y-9356531D01*
X5284301Y-9356531D02*
X5293824Y-9347008D01*
X5293824Y-9347008D02*
X5312872Y-9337484D01*
X5465253Y-9518436D02*
X5474777Y-9527960D01*
X5474777Y-9527960D02*
X5465253Y-9537484D01*
X5465253Y-9537484D02*
X5455729Y-9527960D01*
X5455729Y-9527960D02*
X5465253Y-9518436D01*
X5465253Y-9518436D02*
X5465253Y-9537484D01*
X5646205Y-9337484D02*
X5608110Y-9337484D01*
X5608110Y-9337484D02*
X5589063Y-9347008D01*
X5589063Y-9347008D02*
X5579539Y-9356531D01*
X5579539Y-9356531D02*
X5560491Y-9385103D01*
X5560491Y-9385103D02*
X5550967Y-9423198D01*
X5550967Y-9423198D02*
X5550967Y-9499389D01*
X5550967Y-9499389D02*
X5560491Y-9518436D01*
X5560491Y-9518436D02*
X5570015Y-9527960D01*
X5570015Y-9527960D02*
X5589063Y-9537484D01*
X5589063Y-9537484D02*
X5627158Y-9537484D01*
X5627158Y-9537484D02*
X5646205Y-9527960D01*
X5646205Y-9527960D02*
X5655729Y-9518436D01*
X5655729Y-9518436D02*
X5665253Y-9499389D01*
X5665253Y-9499389D02*
X5665253Y-9451770D01*
X5665253Y-9451770D02*
X5655729Y-9432722D01*
X5655729Y-9432722D02*
X5646205Y-9423198D01*
X5646205Y-9423198D02*
X5627158Y-9413674D01*
X5627158Y-9413674D02*
X5589063Y-9413674D01*
X5589063Y-9413674D02*
X5570015Y-9423198D01*
X5570015Y-9423198D02*
X5560491Y-9432722D01*
X5560491Y-9432722D02*
X5550967Y-9451770D01*
X5846205Y-9337484D02*
X5750967Y-9337484D01*
X5750967Y-9337484D02*
X5741443Y-9432722D01*
X5741443Y-9432722D02*
X5750967Y-9423198D01*
X5750967Y-9423198D02*
X5770015Y-9413674D01*
X5770015Y-9413674D02*
X5817634Y-9413674D01*
X5817634Y-9413674D02*
X5836682Y-9423198D01*
X5836682Y-9423198D02*
X5846205Y-9432722D01*
X5846205Y-9432722D02*
X5855729Y-9451770D01*
X5855729Y-9451770D02*
X5855729Y-9499389D01*
X5855729Y-9499389D02*
X5846205Y-9518436D01*
X5846205Y-9518436D02*
X5836682Y-9527960D01*
X5836682Y-9527960D02*
X5817634Y-9537484D01*
X5817634Y-9537484D02*
X5770015Y-9537484D01*
X5770015Y-9537484D02*
X5750967Y-9527960D01*
X5750967Y-9527960D02*
X5741443Y-9518436D01*
X5979539Y-9337484D02*
X5998586Y-9337484D01*
X5998586Y-9337484D02*
X6017634Y-9347008D01*
X6017634Y-9347008D02*
X6027158Y-9356531D01*
X6027158Y-9356531D02*
X6036682Y-9375579D01*
X6036682Y-9375579D02*
X6046205Y-9413674D01*
X6046205Y-9413674D02*
X6046205Y-9461293D01*
X6046205Y-9461293D02*
X6036682Y-9499389D01*
X6036682Y-9499389D02*
X6027158Y-9518436D01*
X6027158Y-9518436D02*
X6017634Y-9527960D01*
X6017634Y-9527960D02*
X5998586Y-9537484D01*
X5998586Y-9537484D02*
X5979539Y-9537484D01*
X5979539Y-9537484D02*
X5960491Y-9527960D01*
X5960491Y-9527960D02*
X5950967Y-9518436D01*
X5950967Y-9518436D02*
X5941443Y-9499389D01*
X5941443Y-9499389D02*
X5931920Y-9461293D01*
X5931920Y-9461293D02*
X5931920Y-9413674D01*
X5931920Y-9413674D02*
X5941443Y-9375579D01*
X5941443Y-9375579D02*
X5950967Y-9356531D01*
X5950967Y-9356531D02*
X5960491Y-9347008D01*
X5960491Y-9347008D02*
X5979539Y-9337484D01*
X6131920Y-9537484D02*
X6131920Y-9404150D01*
X6131920Y-9423198D02*
X6141443Y-9413674D01*
X6141443Y-9413674D02*
X6160491Y-9404150D01*
X6160491Y-9404150D02*
X6189063Y-9404150D01*
X6189063Y-9404150D02*
X6208110Y-9413674D01*
X6208110Y-9413674D02*
X6217634Y-9432722D01*
X6217634Y-9432722D02*
X6217634Y-9537484D01*
X6217634Y-9432722D02*
X6227158Y-9413674D01*
X6227158Y-9413674D02*
X6246205Y-9404150D01*
X6246205Y-9404150D02*
X6274777Y-9404150D01*
X6274777Y-9404150D02*
X6293824Y-9413674D01*
X6293824Y-9413674D02*
X6303348Y-9432722D01*
X6303348Y-9432722D02*
X6303348Y-9537484D01*
X6398586Y-9537484D02*
X6398586Y-9404150D01*
X6398586Y-9423198D02*
X6408110Y-9413674D01*
X6408110Y-9413674D02*
X6427158Y-9404150D01*
X6427158Y-9404150D02*
X6455729Y-9404150D01*
X6455729Y-9404150D02*
X6474777Y-9413674D01*
X6474777Y-9413674D02*
X6484301Y-9432722D01*
X6484301Y-9432722D02*
X6484301Y-9537484D01*
X6484301Y-9432722D02*
X6493824Y-9413674D01*
X6493824Y-9413674D02*
X6512872Y-9404150D01*
X6512872Y-9404150D02*
X6541443Y-9404150D01*
X6541443Y-9404150D02*
X6560491Y-9413674D01*
X6560491Y-9413674D02*
X6570015Y-9432722D01*
X6570015Y-9432722D02*
X6570015Y-9537484D01*
X6960491Y-9327960D02*
X6789063Y-9585103D01*
X7217634Y-9337484D02*
X7236682Y-9337484D01*
X7236682Y-9337484D02*
X7255729Y-9347008D01*
X7255729Y-9347008D02*
X7265253Y-9356531D01*
X7265253Y-9356531D02*
X7274777Y-9375579D01*
X7274777Y-9375579D02*
X7284301Y-9413674D01*
X7284301Y-9413674D02*
X7284301Y-9461293D01*
X7284301Y-9461293D02*
X7274777Y-9499389D01*
X7274777Y-9499389D02*
X7265253Y-9518436D01*
X7265253Y-9518436D02*
X7255729Y-9527960D01*
X7255729Y-9527960D02*
X7236682Y-9537484D01*
X7236682Y-9537484D02*
X7217634Y-9537484D01*
X7217634Y-9537484D02*
X7198586Y-9527960D01*
X7198586Y-9527960D02*
X7189063Y-9518436D01*
X7189063Y-9518436D02*
X7179539Y-9499389D01*
X7179539Y-9499389D02*
X7170015Y-9461293D01*
X7170015Y-9461293D02*
X7170015Y-9413674D01*
X7170015Y-9413674D02*
X7179539Y-9375579D01*
X7179539Y-9375579D02*
X7189063Y-9356531D01*
X7189063Y-9356531D02*
X7198586Y-9347008D01*
X7198586Y-9347008D02*
X7217634Y-9337484D01*
X7370015Y-9518436D02*
X7379539Y-9527960D01*
X7379539Y-9527960D02*
X7370015Y-9537484D01*
X7370015Y-9537484D02*
X7360491Y-9527960D01*
X7360491Y-9527960D02*
X7370015Y-9518436D01*
X7370015Y-9518436D02*
X7370015Y-9537484D01*
X7503348Y-9337484D02*
X7522396Y-9337484D01*
X7522396Y-9337484D02*
X7541444Y-9347008D01*
X7541444Y-9347008D02*
X7550967Y-9356531D01*
X7550967Y-9356531D02*
X7560491Y-9375579D01*
X7560491Y-9375579D02*
X7570015Y-9413674D01*
X7570015Y-9413674D02*
X7570015Y-9461293D01*
X7570015Y-9461293D02*
X7560491Y-9499389D01*
X7560491Y-9499389D02*
X7550967Y-9518436D01*
X7550967Y-9518436D02*
X7541444Y-9527960D01*
X7541444Y-9527960D02*
X7522396Y-9537484D01*
X7522396Y-9537484D02*
X7503348Y-9537484D01*
X7503348Y-9537484D02*
X7484301Y-9527960D01*
X7484301Y-9527960D02*
X7474777Y-9518436D01*
X7474777Y-9518436D02*
X7465253Y-9499389D01*
X7465253Y-9499389D02*
X7455729Y-9461293D01*
X7455729Y-9461293D02*
X7455729Y-9413674D01*
X7455729Y-9413674D02*
X7465253Y-9375579D01*
X7465253Y-9375579D02*
X7474777Y-9356531D01*
X7474777Y-9356531D02*
X7484301Y-9347008D01*
X7484301Y-9347008D02*
X7503348Y-9337484D01*
X7646206Y-9356531D02*
X7655729Y-9347008D01*
X7655729Y-9347008D02*
X7674777Y-9337484D01*
X7674777Y-9337484D02*
X7722396Y-9337484D01*
X7722396Y-9337484D02*
X7741444Y-9347008D01*
X7741444Y-9347008D02*
X7750967Y-9356531D01*
X7750967Y-9356531D02*
X7760491Y-9375579D01*
X7760491Y-9375579D02*
X7760491Y-9394627D01*
X7760491Y-9394627D02*
X7750967Y-9423198D01*
X7750967Y-9423198D02*
X7636682Y-9537484D01*
X7636682Y-9537484D02*
X7760491Y-9537484D01*
X7941444Y-9337484D02*
X7846206Y-9337484D01*
X7846206Y-9337484D02*
X7836682Y-9432722D01*
X7836682Y-9432722D02*
X7846206Y-9423198D01*
X7846206Y-9423198D02*
X7865253Y-9413674D01*
X7865253Y-9413674D02*
X7912872Y-9413674D01*
X7912872Y-9413674D02*
X7931920Y-9423198D01*
X7931920Y-9423198D02*
X7941444Y-9432722D01*
X7941444Y-9432722D02*
X7950967Y-9451770D01*
X7950967Y-9451770D02*
X7950967Y-9499389D01*
X7950967Y-9499389D02*
X7941444Y-9518436D01*
X7941444Y-9518436D02*
X7931920Y-9527960D01*
X7931920Y-9527960D02*
X7912872Y-9537484D01*
X7912872Y-9537484D02*
X7865253Y-9537484D01*
X7865253Y-9537484D02*
X7846206Y-9527960D01*
X7846206Y-9527960D02*
X7836682Y-9518436D01*
X8122396Y-9337484D02*
X8084301Y-9337484D01*
X8084301Y-9337484D02*
X8065253Y-9347008D01*
X8065253Y-9347008D02*
X8055729Y-9356531D01*
X8055729Y-9356531D02*
X8036682Y-9385103D01*
X8036682Y-9385103D02*
X8027158Y-9423198D01*
X8027158Y-9423198D02*
X8027158Y-9499389D01*
X8027158Y-9499389D02*
X8036682Y-9518436D01*
X8036682Y-9518436D02*
X8046206Y-9527960D01*
X8046206Y-9527960D02*
X8065253Y-9537484D01*
X8065253Y-9537484D02*
X8103348Y-9537484D01*
X8103348Y-9537484D02*
X8122396Y-9527960D01*
X8122396Y-9527960D02*
X8131920Y-9518436D01*
X8131920Y-9518436D02*
X8141444Y-9499389D01*
X8141444Y-9499389D02*
X8141444Y-9451770D01*
X8141444Y-9451770D02*
X8131920Y-9432722D01*
X8131920Y-9432722D02*
X8122396Y-9423198D01*
X8122396Y-9423198D02*
X8103348Y-9413674D01*
X8103348Y-9413674D02*
X8065253Y-9413674D01*
X8065253Y-9413674D02*
X8046206Y-9423198D01*
X8046206Y-9423198D02*
X8036682Y-9432722D01*
X8036682Y-9432722D02*
X8027158Y-9451770D01*
X8217634Y-9337484D02*
X8217634Y-9375579D01*
X8293825Y-9337484D02*
X8293825Y-9375579D01*
X8589063Y-9613674D02*
X8579539Y-9604150D01*
X8579539Y-9604150D02*
X8560491Y-9575579D01*
X8560491Y-9575579D02*
X8550968Y-9556531D01*
X8550968Y-9556531D02*
X8541444Y-9527960D01*
X8541444Y-9527960D02*
X8531920Y-9480341D01*
X8531920Y-9480341D02*
X8531920Y-9442246D01*
X8531920Y-9442246D02*
X8541444Y-9394627D01*
X8541444Y-9394627D02*
X8550968Y-9366055D01*
X8550968Y-9366055D02*
X8560491Y-9347008D01*
X8560491Y-9347008D02*
X8579539Y-9318436D01*
X8579539Y-9318436D02*
X8589063Y-9308912D01*
X8655730Y-9356531D02*
X8665253Y-9347008D01*
X8665253Y-9347008D02*
X8684301Y-9337484D01*
X8684301Y-9337484D02*
X8731920Y-9337484D01*
X8731920Y-9337484D02*
X8750968Y-9347008D01*
X8750968Y-9347008D02*
X8760491Y-9356531D01*
X8760491Y-9356531D02*
X8770015Y-9375579D01*
X8770015Y-9375579D02*
X8770015Y-9394627D01*
X8770015Y-9394627D02*
X8760491Y-9423198D01*
X8760491Y-9423198D02*
X8646206Y-9537484D01*
X8646206Y-9537484D02*
X8770015Y-9537484D01*
X9008111Y-9537484D02*
X9008111Y-9337484D01*
X9093825Y-9537484D02*
X9093825Y-9432722D01*
X9093825Y-9432722D02*
X9084301Y-9413674D01*
X9084301Y-9413674D02*
X9065253Y-9404150D01*
X9065253Y-9404150D02*
X9036682Y-9404150D01*
X9036682Y-9404150D02*
X9017634Y-9413674D01*
X9017634Y-9413674D02*
X9008111Y-9423198D01*
X9217634Y-9537484D02*
X9198587Y-9527960D01*
X9198587Y-9527960D02*
X9189063Y-9518436D01*
X9189063Y-9518436D02*
X9179539Y-9499389D01*
X9179539Y-9499389D02*
X9179539Y-9442246D01*
X9179539Y-9442246D02*
X9189063Y-9423198D01*
X9189063Y-9423198D02*
X9198587Y-9413674D01*
X9198587Y-9413674D02*
X9217634Y-9404150D01*
X9217634Y-9404150D02*
X9246206Y-9404150D01*
X9246206Y-9404150D02*
X9265253Y-9413674D01*
X9265253Y-9413674D02*
X9274777Y-9423198D01*
X9274777Y-9423198D02*
X9284301Y-9442246D01*
X9284301Y-9442246D02*
X9284301Y-9499389D01*
X9284301Y-9499389D02*
X9274777Y-9518436D01*
X9274777Y-9518436D02*
X9265253Y-9527960D01*
X9265253Y-9527960D02*
X9246206Y-9537484D01*
X9246206Y-9537484D02*
X9217634Y-9537484D01*
X9398587Y-9537484D02*
X9379539Y-9527960D01*
X9379539Y-9527960D02*
X9370015Y-9508912D01*
X9370015Y-9508912D02*
X9370015Y-9337484D01*
X9550968Y-9527960D02*
X9531920Y-9537484D01*
X9531920Y-9537484D02*
X9493825Y-9537484D01*
X9493825Y-9537484D02*
X9474777Y-9527960D01*
X9474777Y-9527960D02*
X9465253Y-9508912D01*
X9465253Y-9508912D02*
X9465253Y-9432722D01*
X9465253Y-9432722D02*
X9474777Y-9413674D01*
X9474777Y-9413674D02*
X9493825Y-9404150D01*
X9493825Y-9404150D02*
X9531920Y-9404150D01*
X9531920Y-9404150D02*
X9550968Y-9413674D01*
X9550968Y-9413674D02*
X9560492Y-9432722D01*
X9560492Y-9432722D02*
X9560492Y-9451770D01*
X9560492Y-9451770D02*
X9465253Y-9470817D01*
X9636682Y-9527960D02*
X9655730Y-9537484D01*
X9655730Y-9537484D02*
X9693825Y-9537484D01*
X9693825Y-9537484D02*
X9712873Y-9527960D01*
X9712873Y-9527960D02*
X9722396Y-9508912D01*
X9722396Y-9508912D02*
X9722396Y-9499389D01*
X9722396Y-9499389D02*
X9712873Y-9480341D01*
X9712873Y-9480341D02*
X9693825Y-9470817D01*
X9693825Y-9470817D02*
X9665253Y-9470817D01*
X9665253Y-9470817D02*
X9646206Y-9461293D01*
X9646206Y-9461293D02*
X9636682Y-9442246D01*
X9636682Y-9442246D02*
X9636682Y-9432722D01*
X9636682Y-9432722D02*
X9646206Y-9413674D01*
X9646206Y-9413674D02*
X9665253Y-9404150D01*
X9665253Y-9404150D02*
X9693825Y-9404150D01*
X9693825Y-9404150D02*
X9712873Y-9413674D01*
X9789063Y-9613674D02*
X9798587Y-9604150D01*
X9798587Y-9604150D02*
X9817634Y-9575579D01*
X9817634Y-9575579D02*
X9827158Y-9556531D01*
X9827158Y-9556531D02*
X9836682Y-9527960D01*
X9836682Y-9527960D02*
X9846206Y-9480341D01*
X9846206Y-9480341D02*
X9846206Y-9442246D01*
X9846206Y-9442246D02*
X9836682Y-9394627D01*
X9836682Y-9394627D02*
X9827158Y-9366055D01*
X9827158Y-9366055D02*
X9817634Y-9347008D01*
X9817634Y-9347008D02*
X9798587Y-9318436D01*
X9798587Y-9318436D02*
X9789063Y-9308912D01*
X10150968Y-9613674D02*
X10141444Y-9604150D01*
X10141444Y-9604150D02*
X10122396Y-9575579D01*
X10122396Y-9575579D02*
X10112873Y-9556531D01*
X10112873Y-9556531D02*
X10103349Y-9527960D01*
X10103349Y-9527960D02*
X10093825Y-9480341D01*
X10093825Y-9480341D02*
X10093825Y-9442246D01*
X10093825Y-9442246D02*
X10103349Y-9394627D01*
X10103349Y-9394627D02*
X10112873Y-9366055D01*
X10112873Y-9366055D02*
X10122396Y-9347008D01*
X10122396Y-9347008D02*
X10141444Y-9318436D01*
X10141444Y-9318436D02*
X10150968Y-9308912D01*
X10227158Y-9404150D02*
X10227158Y-9537484D01*
X10227158Y-9423198D02*
X10236682Y-9413674D01*
X10236682Y-9413674D02*
X10255730Y-9404150D01*
X10255730Y-9404150D02*
X10284301Y-9404150D01*
X10284301Y-9404150D02*
X10303349Y-9413674D01*
X10303349Y-9413674D02*
X10312873Y-9432722D01*
X10312873Y-9432722D02*
X10312873Y-9537484D01*
X10436682Y-9537484D02*
X10417634Y-9527960D01*
X10417634Y-9527960D02*
X10408111Y-9518436D01*
X10408111Y-9518436D02*
X10398587Y-9499389D01*
X10398587Y-9499389D02*
X10398587Y-9442246D01*
X10398587Y-9442246D02*
X10408111Y-9423198D01*
X10408111Y-9423198D02*
X10417634Y-9413674D01*
X10417634Y-9413674D02*
X10436682Y-9404150D01*
X10436682Y-9404150D02*
X10465254Y-9404150D01*
X10465254Y-9404150D02*
X10484301Y-9413674D01*
X10484301Y-9413674D02*
X10493825Y-9423198D01*
X10493825Y-9423198D02*
X10503349Y-9442246D01*
X10503349Y-9442246D02*
X10503349Y-9499389D01*
X10503349Y-9499389D02*
X10493825Y-9518436D01*
X10493825Y-9518436D02*
X10484301Y-9527960D01*
X10484301Y-9527960D02*
X10465254Y-9537484D01*
X10465254Y-9537484D02*
X10436682Y-9537484D01*
X10560492Y-9404150D02*
X10636682Y-9404150D01*
X10589063Y-9337484D02*
X10589063Y-9508912D01*
X10589063Y-9508912D02*
X10598587Y-9527960D01*
X10598587Y-9527960D02*
X10617634Y-9537484D01*
X10617634Y-9537484D02*
X10636682Y-9537484D01*
X10855730Y-9404150D02*
X10855730Y-9604150D01*
X10855730Y-9413674D02*
X10874777Y-9404150D01*
X10874777Y-9404150D02*
X10912873Y-9404150D01*
X10912873Y-9404150D02*
X10931920Y-9413674D01*
X10931920Y-9413674D02*
X10941444Y-9423198D01*
X10941444Y-9423198D02*
X10950968Y-9442246D01*
X10950968Y-9442246D02*
X10950968Y-9499389D01*
X10950968Y-9499389D02*
X10941444Y-9518436D01*
X10941444Y-9518436D02*
X10931920Y-9527960D01*
X10931920Y-9527960D02*
X10912873Y-9537484D01*
X10912873Y-9537484D02*
X10874777Y-9537484D01*
X10874777Y-9537484D02*
X10855730Y-9527960D01*
X11065254Y-9537484D02*
X11046206Y-9527960D01*
X11046206Y-9527960D02*
X11036682Y-9508912D01*
X11036682Y-9508912D02*
X11036682Y-9337484D01*
X11227158Y-9537484D02*
X11227158Y-9432722D01*
X11227158Y-9432722D02*
X11217634Y-9413674D01*
X11217634Y-9413674D02*
X11198587Y-9404150D01*
X11198587Y-9404150D02*
X11160492Y-9404150D01*
X11160492Y-9404150D02*
X11141444Y-9413674D01*
X11227158Y-9527960D02*
X11208111Y-9537484D01*
X11208111Y-9537484D02*
X11160492Y-9537484D01*
X11160492Y-9537484D02*
X11141444Y-9527960D01*
X11141444Y-9527960D02*
X11131920Y-9508912D01*
X11131920Y-9508912D02*
X11131920Y-9489865D01*
X11131920Y-9489865D02*
X11141444Y-9470817D01*
X11141444Y-9470817D02*
X11160492Y-9461293D01*
X11160492Y-9461293D02*
X11208111Y-9461293D01*
X11208111Y-9461293D02*
X11227158Y-9451770D01*
X11293825Y-9404150D02*
X11370015Y-9404150D01*
X11322396Y-9337484D02*
X11322396Y-9508912D01*
X11322396Y-9508912D02*
X11331920Y-9527960D01*
X11331920Y-9527960D02*
X11350968Y-9537484D01*
X11350968Y-9537484D02*
X11370015Y-9537484D01*
X11512873Y-9527960D02*
X11493825Y-9537484D01*
X11493825Y-9537484D02*
X11455730Y-9537484D01*
X11455730Y-9537484D02*
X11436682Y-9527960D01*
X11436682Y-9527960D02*
X11427158Y-9508912D01*
X11427158Y-9508912D02*
X11427158Y-9432722D01*
X11427158Y-9432722D02*
X11436682Y-9413674D01*
X11436682Y-9413674D02*
X11455730Y-9404150D01*
X11455730Y-9404150D02*
X11493825Y-9404150D01*
X11493825Y-9404150D02*
X11512873Y-9413674D01*
X11512873Y-9413674D02*
X11522396Y-9432722D01*
X11522396Y-9432722D02*
X11522396Y-9451770D01*
X11522396Y-9451770D02*
X11427158Y-9470817D01*
X11693825Y-9537484D02*
X11693825Y-9337484D01*
X11693825Y-9527960D02*
X11674777Y-9537484D01*
X11674777Y-9537484D02*
X11636682Y-9537484D01*
X11636682Y-9537484D02*
X11617634Y-9527960D01*
X11617634Y-9527960D02*
X11608111Y-9518436D01*
X11608111Y-9518436D02*
X11598587Y-9499389D01*
X11598587Y-9499389D02*
X11598587Y-9442246D01*
X11598587Y-9442246D02*
X11608111Y-9423198D01*
X11608111Y-9423198D02*
X11617634Y-9413674D01*
X11617634Y-9413674D02*
X11636682Y-9404150D01*
X11636682Y-9404150D02*
X11674777Y-9404150D01*
X11674777Y-9404150D02*
X11693825Y-9413674D01*
X11770015Y-9613674D02*
X11779539Y-9604150D01*
X11779539Y-9604150D02*
X11798587Y-9575579D01*
X11798587Y-9575579D02*
X11808111Y-9556531D01*
X11808111Y-9556531D02*
X11817634Y-9527960D01*
X11817634Y-9527960D02*
X11827158Y-9480341D01*
X11827158Y-9480341D02*
X11827158Y-9442246D01*
X11827158Y-9442246D02*
X11817634Y-9394627D01*
X11817634Y-9394627D02*
X11808111Y-9366055D01*
X11808111Y-9366055D02*
X11798587Y-9347008D01*
X11798587Y-9347008D02*
X11779539Y-9318436D01*
X11779539Y-9318436D02*
X11770015Y-9308912D01*
M02*
