M48
; DRILL file {KiCad 8.0.2} date 2025-03-31T12:18:26-0700
; FORMAT={3:3/ absolute / metric / suppress leading zeros}
; #@! TF.CreationDate,2025-03-31T12:18:26-07:00
; #@! TF.GenerationSoftware,Kicad,Pcbnew,8.0.2
; #@! TF.FileFunction,MixedPlating,1,4
FMAT,2
METRIC,TZ
; #@! TA.AperFunction,Plated,PTH,ViaDrill
T1C0.300
; #@! TA.AperFunction,Plated,PTH,ComponentDrill
T2C0.300
; #@! TA.AperFunction,Plated,PTH,ViaDrill
T3C0.400
; #@! TA.AperFunction,Plated,PTH,ComponentDrill
T4C0.400
; #@! TA.AperFunction,Plated,PTH,ComponentDrill
T5C0.600
; #@! TA.AperFunction,Plated,PTH,ComponentDrill
T6C1.000
; #@! TA.AperFunction,Plated,PTH,ComponentDrill
T7C3.200
; #@! TA.AperFunction,NonPlated,NPTH,ComponentDrill
T8C0.650
%
G90
G05
T1
X51025Y-70800
X51900Y-70800
X53000Y-26750
X55450Y-47500
X55700Y-51600
X55800Y-44050
X56100Y-24200
X57350Y-32500
X58550Y-76350
X59250Y-44050
X59600Y-74600
X60800Y-75000
X61000Y-53000
X61150Y-84150
X61550Y-46200
X62000Y-45200
X63000Y-44200
X63974Y-43699
X64200Y-83900
X64750Y-78400
X64900Y-55610
X64900Y-58150
X64900Y-60690
X64900Y-63230
X64900Y-68310
X65534Y-42908
X65600Y-69610
X65750Y-64650
X66712Y-69957
X66879Y-44505
X67250Y-73400
X67400Y-54000
X67400Y-67500
X67600Y-63200
X67900Y-30800
X67950Y-70950
X68200Y-55800
X69050Y-49900
X69433Y-71486
X69450Y-45850
X69850Y-79050
X70200Y-33700
X70300Y-40300
X70378Y-71525
X70500Y-30100
X70650Y-73150
X70800Y-62400
X70845Y-65900
X70900Y-32300
X70900Y-67015
X71400Y-30500
X71400Y-60600
X71458Y-67715
X71600Y-64200
X71925Y-27550
X72000Y-58200
X72100Y-37100
X72800Y-70300
X73054Y-68415
X73100Y-37600
X73600Y-69800
X74000Y-36000
X74600Y-34200
X75700Y-30500
X75800Y-77400
X75900Y-38000
X76000Y-52400
X76000Y-63200
X76175Y-74955
X76700Y-53200
X76729Y-44530
X76782Y-48225
X76800Y-87175
X76820Y-38812
X77050Y-76960
X77100Y-40700
X77200Y-46775
X77228Y-43817
X77400Y-42964
X77400Y-39500
X77575Y-74818
X77700Y-31800
X78075Y-51200
X78235Y-44641
X78372Y-41715
X78775Y-52425
X78900Y-42460
X78978Y-48314
X79082Y-47463
X79100Y-39500
X79400Y-46140
X79729Y-45266
X80900Y-53200
X81000Y-59600
X81000Y-63200
X81300Y-36700
X81600Y-75000
X81800Y-37427
X82300Y-52300
X82500Y-38900
X82600Y-57000
X82800Y-37900
X82952Y-36200
X83000Y-61200
X83200Y-74200
X83300Y-34600
X83300Y-58300
X83728Y-70102
X83783Y-68000
X83900Y-55700
X84212Y-39039
X84400Y-64400
X84400Y-65400
X84750Y-33650
X84800Y-71200
X85000Y-42000
X85000Y-69800
X85045Y-38867
X85200Y-66100
X85600Y-36300
X85600Y-49530
X85600Y-50400
X85600Y-72600
X85600Y-73800
X85801Y-47092
X85902Y-54122
X86100Y-58300
X86100Y-66900
X87100Y-47000
X87600Y-53800
X88000Y-39100
X88000Y-50400
X88200Y-36100
X88500Y-34400
X88800Y-55800
X89400Y-33650
X89500Y-36900
X90200Y-49600
X90200Y-72400
X90251Y-40411
X90301Y-42557
X90443Y-43837
X90600Y-36100
X90650Y-34100
X90901Y-40989
X91150Y-77150
X91227Y-43197
X91350Y-46300
X91400Y-35500
X91700Y-59650
X91800Y-69000
X92200Y-53050
X92300Y-80100
X92550Y-33100
X92587Y-69866
X92600Y-87190
X93396Y-70515
X93400Y-43900
X93400Y-80100
X93685Y-73353
X94000Y-34400
X94000Y-46200
X95050Y-60200
X95150Y-57000
X95400Y-35275
X95600Y-62800
X95900Y-48500
X96500Y-59650
X96500Y-71200
X96500Y-79100
X97042Y-85010
X97050Y-53100
X97300Y-67210
X98650Y-55100
X98800Y-74790
X99600Y-48500
X99710Y-64400
X101300Y-65400
T2
X77100Y-66200
X77100Y-69000
X77500Y-49700
X78550Y-67650
X79900Y-66200
X79900Y-69000
X83600Y-42900
X83600Y-46100
X85200Y-44500
X86800Y-42900
X86800Y-46100
T3
X51100Y-41200
X51100Y-47500
X51400Y-33300
X51700Y-76000
X51900Y-40400
X52200Y-32500
X52200Y-55850
X52200Y-73650
X52400Y-47500
X53100Y-76400
X54000Y-47500
X55200Y-38600
X56800Y-53900
X57500Y-41400
X58800Y-54000
X59000Y-57300
X60200Y-66750
X60700Y-37500
X62000Y-32500
X63400Y-32500
X64800Y-32500
X65700Y-76350
X66200Y-32500
X67200Y-24800
X68600Y-24900
X72900Y-29100
X73300Y-47500
X73900Y-24000
X74000Y-60400
X74500Y-27800
X74500Y-29100
X75200Y-24000
X75200Y-59400
X76200Y-60600
X76670Y-59661
X79200Y-23400
X79200Y-24900
X79200Y-31800
X79200Y-32800
X79945Y-40300
X80700Y-23400
X80800Y-31800
X80800Y-32800
X81600Y-27900
X81700Y-24200
X81900Y-31000
X82700Y-30500
X83850Y-30750
X84886Y-68075
X85942Y-35387
X87146Y-76566
X88800Y-64800
X88804Y-76710
X90086Y-75775
X90135Y-73225
X90400Y-58500
X90475Y-59600
X90500Y-30900
X90700Y-48500
X91800Y-30900
X92100Y-48500
X93400Y-27600
X94800Y-25800
X94800Y-27600
X95700Y-64850
X95700Y-67400
X95700Y-73900
X95700Y-78300
X99600Y-35500
X100700Y-35500
X101500Y-48400
X102700Y-48000
T4
X51200Y-26700
X51200Y-31800
X51200Y-77200
X51900Y-34400
X52000Y-41900
X52000Y-46300
X52000Y-48800
X52000Y-52300
X54150Y-55710
X54150Y-58250
X54150Y-60790
X54150Y-63330
X54150Y-65870
X54150Y-68410
X54150Y-73490
X55000Y-23500
X57200Y-27600
X58000Y-87000
X58850Y-52600
X58850Y-59350
X58850Y-67500
X58850Y-73750
X61850Y-44200
X61900Y-37150
X62200Y-27600
X63100Y-62000
X63600Y-87000
X63900Y-33600
X64400Y-42150
X64600Y-77300
X64650Y-48450
X64650Y-52150
X65500Y-31400
X66800Y-75400
X67550Y-52150
X68800Y-54900
X71150Y-37850
X71150Y-59400
X71800Y-75400
X72350Y-34300
X72900Y-81000
X74600Y-25100
X75000Y-50600
X75400Y-78300
X75500Y-46000
X76400Y-54750
X76400Y-58250
X77100Y-33600
X80200Y-50400
X84000Y-62800
X84200Y-23600
X84400Y-34800
X85600Y-26500
X87100Y-23600
X87900Y-57800
X87900Y-62800
X88800Y-26500
X88800Y-75300
X90200Y-23600
X91300Y-73800
X91400Y-49800
X93050Y-68900
X93800Y-40800
X94100Y-55900
X94800Y-23600
X95150Y-42550
X96450Y-55900
X98400Y-49500
X98650Y-67750
X98650Y-73550
X100100Y-34400
X102600Y-49600
X102600Y-52600
X102600Y-58600
X102600Y-61600
X102600Y-64600
X102600Y-67600
X102600Y-70600
X102600Y-73600
X102600Y-76600
X102600Y-79600
X102600Y-85200
T6
X60000Y-25000
X62540Y-25000
X65675Y-83575
X65675Y-86115
X68215Y-83575
X68215Y-86115
X70755Y-83575
X70755Y-86115
X73295Y-83575
X73295Y-86115
X75835Y-83575
X75835Y-86115
X78375Y-83575
X78375Y-86115
X80915Y-86115
X83455Y-86115
X85995Y-86115
X88535Y-83575
X88535Y-86115
X91075Y-83575
X91075Y-86115
X93615Y-83575
X93615Y-86115
X96155Y-83575
X96155Y-86115
X98335Y-46600
X98360Y-37745
X98360Y-40285
X98360Y-42825
X98695Y-83575
X98695Y-86115
X100875Y-46600
X100900Y-37745
X100900Y-40285
X100900Y-42825
X101235Y-83575
X101235Y-86115
T7
X54200Y-84000
X83700Y-80000
X99700Y-26500
T8
X84310Y-28100
X90090Y-28100
T5
G00X82880Y-24750
M15
G01X82880Y-24150
M16
G05
G00X82880Y-29180
M15
G01X82880Y-28080
M16
G05
G00X91520Y-24750
M15
G01X91520Y-24150
M16
G05
G00X91520Y-29180
M15
G01X91520Y-28080
M16
G05
M30
