%TF.GenerationSoftware,KiCad,Pcbnew,8.0.2*%
%TF.CreationDate,2025-03-31T12:16:52-07:00*%
%TF.ProjectId,ChipigniteExplain,43686970-6967-46e6-9974-654578706c61,1.1*%
%TF.SameCoordinates,Original*%
%TF.FileFunction,AssemblyDrawing,Bot*%
%FSLAX46Y46*%
G04 Gerber Fmt 4.6, Leading zero omitted, Abs format (unit mm)*
G04 Created by KiCad (PCBNEW 8.0.2) date 2025-03-31 12:16:52*
%MOMM*%
%LPD*%
G01*
G04 APERTURE LIST*
%ADD10C,0.150000*%
%ADD11C,0.100000*%
G04 APERTURE END LIST*
D10*
X75049819Y-32940476D02*
X75764104Y-32940476D01*
X75764104Y-32940476D02*
X75906961Y-32892857D01*
X75906961Y-32892857D02*
X76002200Y-32797619D01*
X76002200Y-32797619D02*
X76049819Y-32654762D01*
X76049819Y-32654762D02*
X76049819Y-32559524D01*
X76049819Y-33940476D02*
X76049819Y-33369048D01*
X76049819Y-33654762D02*
X75049819Y-33654762D01*
X75049819Y-33654762D02*
X75192676Y-33559524D01*
X75192676Y-33559524D02*
X75287914Y-33464286D01*
X75287914Y-33464286D02*
X75335533Y-33369048D01*
X76049819Y-34892857D02*
X76049819Y-34321429D01*
X76049819Y-34607143D02*
X75049819Y-34607143D01*
X75049819Y-34607143D02*
X75192676Y-34511905D01*
X75192676Y-34511905D02*
X75287914Y-34416667D01*
X75287914Y-34416667D02*
X75335533Y-34321429D01*
D11*
%TO.C,J11*%
X70555000Y-26180000D02*
X70555000Y-26820000D01*
X70555000Y-26820000D02*
X71825000Y-26820000D01*
X70555000Y-31260000D02*
X70555000Y-31900000D01*
X70555000Y-31900000D02*
X71825000Y-31900000D01*
X70555000Y-36340000D02*
X70555000Y-36980000D01*
X70555000Y-36980000D02*
X71825000Y-36980000D01*
X71825000Y-25230000D02*
X71825000Y-40470000D01*
X71825000Y-25230000D02*
X74365000Y-25230000D01*
X71825000Y-26180000D02*
X70555000Y-26180000D01*
X71825000Y-31260000D02*
X70555000Y-31260000D01*
X71825000Y-36340000D02*
X70555000Y-36340000D01*
X73415000Y-40470000D02*
X71825000Y-40470000D01*
X73415000Y-40470000D02*
X74365000Y-39520000D01*
X74365000Y-28720000D02*
X75635000Y-28720000D01*
X74365000Y-33800000D02*
X75635000Y-33800000D01*
X74365000Y-38880000D02*
X75635000Y-38880000D01*
X74365000Y-39520000D02*
X74365000Y-25230000D01*
X75635000Y-28720000D02*
X75635000Y-29360000D01*
X75635000Y-29360000D02*
X74365000Y-29360000D01*
X75635000Y-33800000D02*
X75635000Y-34440000D01*
X75635000Y-34440000D02*
X74365000Y-34440000D01*
X75635000Y-38880000D02*
X75635000Y-39520000D01*
X75635000Y-39520000D02*
X74365000Y-39520000D01*
%TD*%
M02*
